<?xml version="1.0" encoding="UTF-8" standalone="no"?>
<!-- Created with Inkscape (http://www.inkscape.org/) -->

<svg
   xmlns:dc="http://purl.org/dc/elements/1.1/"
   xmlns:cc="http://creativecommons.org/ns#"
   xmlns:rdf="http://www.w3.org/1999/02/22-rdf-syntax-ns#"
   xmlns:svg="http://www.w3.org/2000/svg"
   xmlns="http://www.w3.org/2000/svg"
   xmlns:sodipodi="http://sodipodi.sourceforge.net/DTD/sodipodi-0.dtd"
   xmlns:inkscape="http://www.inkscape.org/namespaces/inkscape"
   width="1000"
   height="700"
   id="svg2"
   version="1.1"
   inkscape:version="0.48.3.1 r9886"
   sodipodi:docname="background.svg"
   inkscape:export-filename="/home/henry/Original/workspace/aaa/src/main/resources/background.png"
   inkscape:export-xdpi="90"
   inkscape:export-ydpi="90">
  <defs
     id="defs4" />
  <sodipodi:namedview
     id="base"
     pagecolor="#ffffff"
     bordercolor="#666666"
     borderopacity="1.0"
     inkscape:pageopacity="0.0"
     inkscape:pageshadow="2"
     inkscape:zoom="3.959798"
     inkscape:cx="279.4972"
     inkscape:cy="127.10604"
     inkscape:document-units="px"
     inkscape:current-layer="layer1"
     showgrid="false"
     inkscape:window-width="1280"
     inkscape:window-height="724"
     inkscape:window-x="1280"
     inkscape:window-y="248"
     inkscape:window-maximized="1" />
  <metadata
     id="metadata7">
    <rdf:RDF>
      <cc:Work
         rdf:about="">
        <dc:format>image/svg+xml</dc:format>
        <dc:type
           rdf:resource="http://purl.org/dc/dcmitype/StillImage" />
        <dc:title></dc:title>
      </cc:Work>
    </rdf:RDF>
  </metadata>
  <g
     inkscape:label="Layer 1"
     inkscape:groupmode="layer"
     id="layer1"
     transform="translate(0,-352.36218)">
    <rect
       style="fill:#5fd3bb;fill-opacity:1;stroke:none"
       id="rect2993"
       width="1171.4286"
       height="760"
       x="-54.285713"
       y="343.79074" />
    <path
       style="fill:#ffffff;fill-opacity:1;stroke:none"
       d="m -200,588.57143 c 1.90476,4.7619 3.80952,9.52381 5.71429,14.28571 0,1.90476 -0.60234,3.90727 0,5.71429 0.42591,1.27775 2.43122,1.57939 2.85714,2.85714 0.60234,1.80702 -0.85184,4.01062 0,5.71429 1.20468,2.40935 4.09804,3.55929 5.71428,5.71428 1.27776,1.70367 1.67586,3.94236 2.85715,5.71429 0.74711,1.12066 2.2548,1.65246 2.85714,2.85714 1.34687,2.69374 1.51027,5.87769 2.85714,8.57143 0.59107,1.18214 7.36039,7.76407 8.57143,8.57143 7.48949,4.99299 4.99299,1.06792 14.28572,5.71428 1.20467,0.60234 1.65246,2.25481 2.85714,2.85715 3.39679,1.69839 17.2537,5.25657 20,5.71428 1.87884,0.31314 3.82867,-0.26937 5.71428,0 4.80741,0.68677 9.44381,2.48469 14.28572,2.85715 7.5966,0.58435 15.238094,0 22.857141,0 6.666667,0 13.333334,0 20,0 11.428572,0 22.857143,0 34.285715,0 3.809524,0 7.619047,0 11.428571,0 2.857143,0 5.75316,0.46971 8.571429,0 2.970715,-0.49512 5.6007126,-2.36203 8.5714283,-2.85715 2.8182683,-0.46971 5.79959284,0.69296 8.5714286,0 1.3066558,-0.32666 1.6524656,-2.2548 2.8571428,-2.85714 2.6937401,-1.34687 5.7751423,-1.73863 8.5714283,-2.85714 6.531036,-2.61242 7.577772,-4.54667 14.285715,-8.57143 1.826107,-1.09567 3.888178,-1.76148 5.714285,-2.85714 2.94451,-1.76671 5.777183,-3.7184 8.571429,-5.71429 3.874921,-2.7678 7.29408,-6.20886 11.428571,-8.57143 2.614882,-1.49422 5.803246,-1.67078 8.571429,-2.85714 3.914801,-1.67777 7.619047,-3.80953 11.428571,-5.71429 C 76.190476,621.90476 78.296329,621.27775 80,620 c 6.242046,-4.68153 5.895432,-8.63181 14.285714,-11.42857 15.359026,-5.11968 1.880755,6.30012 17.142856,-2.85714 2.30986,-1.38592 3.5593,-4.09805 5.71429,-5.71429 8.85839,-6.6438 2.55956,-1.35418 8.57143,-2.85714 5.84354,-1.46089 11.20142,-4.72405 17.14285,-5.71429 5.63654,-0.93942 11.48601,0.80812 17.14286,0 3.8873,-0.55533 7.53213,-2.37009 11.42857,-2.85714 5.67016,-0.70877 11.42857,0 17.14286,0 3.80952,0 7.61905,0 11.42857,0 2.85714,0 5.76977,-0.56033 8.57143,0 4.17647,0.83529 7.29656,-3.31872 11.42857,-2.28572 1.84789,0.46198 3.94576,-0.70741 5.71429,0 11.93249,4.773 3.74933,0.16036 9.91334,4.78336 0.3009,0.22568 -5.42504,-1.75961 8.05148,-1.19834 15.95517,0.66451 11.76008,0.85152 13.46375,2.12927 2.40935,1.80702 5.98892,1.30764 8.57143,2.85714 2.30986,1.38592 3.80952,3.80953 5.71428,5.71429 1.90476,1.90476 3.80953,3.80952 5.71429,5.71428 13.7972,13.79721 -3.73555,-2.98843 14.28571,11.42858 3.15519,2.52414 5.33894,6.14706 8.57143,8.57142 2.74709,2.06032 5.71429,3.80953 8.57143,5.71429 2.85714,1.90476 5.50009,4.17862 8.57143,5.71429 2.69374,1.34687 5.71428,1.90476 8.57143,2.85714 2.85714,0.95238 5.60071,2.36202 8.57142,2.85714 2.81827,0.46971 5.75316,-0.46971 8.57143,0 26.77577,4.46263 -16.30681,2.15393 22.85715,5.71429 8.53622,0.77602 17.14285,0 25.71428,0 3.80953,0 7.73279,-0.92395 11.42857,0 4.13201,1.033 7.27082,4.79034 11.42857,5.71428 4.64851,1.03301 9.52381,0 14.28572,0 13.33333,0 26.66667,0 40,0 4.7619,0 9.54026,-0.39545 14.28571,0 6.71109,0.55926 13.28277,2.37734 20,2.85715 24.52324,1.75166 15.6339,-0.82664 40,-2.85715 3.22345,-0.26862 29.65568,0.32235 31.42857,0 0.0836,-0.0152 28.07706,-11.2488 28.57143,-11.42857 5.71429,-1.90476 11.42857,-3.80952 17.14286,-5.71428 3.80952,0 7.73279,0.92394 11.42857,0 C 642.85714,634.85714 640,632 648.57143,629.14286 c 0.90351,-0.30117 1.95363,0.30117 2.85714,0 8.29899,-2.76633 3.98663,-2.98998 11.42857,-8.57143 1.70367,-1.27775 3.80953,-1.90476 5.71429,-2.85714 8.40802,-4.20402 3.69398,-2.18371 14.28571,-5.71429 2.85715,-0.95238 5.61822,-0.2665 8.57143,-0.85714 3.73555,-0.74711 7.73279,6.92394 11.42857,6 2.06601,-0.5165 3.62606,-2.4395 5.71429,-2.85715 2.80166,-0.56033 5.79959,0.69296 8.57143,0 1.30665,-0.32666 1.57939,-2.43122 2.85714,-2.85714 1.80702,-0.60234 3.80952,0 5.71429,0 5.71428,0 11.42857,20 17.14285,20 1.90476,0 3.90727,0.60234 5.71429,0 1.27775,-0.42592 1.57939,-2.43122 2.85714,-2.85714 1.89049,-0.63016 16.12822,0 20,0 4.76191,0 9.52381,0 14.28572,0 1.90476,0 3.90727,-0.60234 5.71428,0 2.02031,0.67343 3.80953,1.90476 5.71429,2.85714 1.90476,0.95238 3.94236,1.67586 5.71428,2.85714 1.12067,0.74711 1.73648,2.11004 2.85715,2.85715 1.77192,1.18128 3.88817,1.76148 5.71428,2.85714 6.31883,-0.27904 7.46643,5.93 11.42857,8.57143 1.77193,1.18128 3.88818,1.76148 5.71429,2.85714 2.94451,1.76671 5.62692,3.94758 8.57143,5.71429 1.8261,1.09566 3.88818,1.76148 5.71428,2.85714 2.94451,1.76671 5.31379,4.6284 8.57143,5.71429 2.71053,0.9035 5.79959,-0.69296 8.57143,0 1.30666,0.32666 1.90476,1.90476 2.85714,2.85714 2.85715,0.95238 5.60072,2.36202 8.57143,2.85714 1.7284,0.28807 20.6932,0.43279 22.85714,0 2.95321,-0.59064 5.71429,-1.90476 8.57143,-2.85714 2.85715,-0.95238 5.77514,-1.73863 8.57143,-2.85714 1.97727,-0.79091 3.73701,-2.06624 5.71429,-2.85715 5.59257,-2.23703 11.55028,-3.47725 17.14285,-5.71428 1.97728,-0.79091 3.80953,-1.90476 5.71429,-2.85715 2.85714,-1.90476 5.41521,-4.36162 8.57143,-5.71428 3.60927,-1.54683 7.65289,-1.77838 11.42857,-2.85714 2.89581,-0.82738 5.80325,-1.67078 8.57143,-2.85715 3.9148,-1.67777 7.51377,-4.03651 11.42857,-5.71428 2.76818,-1.18637 5.87769,-1.51028 8.57143,-2.85715 3.07133,-1.53566 5.40171,-4.39357 8.57143,-5.71428 8.34004,-3.47503 17.29354,-5.2967 25.71424,-8.57143 8.7421,-3.3997 16.9128,-8.1859 25.7143,-11.42857 9.3301,-3.4374 19.0323,-5.76581 28.5715,-8.57143 6.6517,-1.95638 13.1853,-4.43653 20,-5.71429 8.4764,-1.58933 17.2954,-0.98629 25.7142,-2.85714 8.82,-1.95998 16.8944,-6.61144 25.7143,-8.57143 85.2716,-18.94924 -18.6088,7.38719 42.8572,-2.85714 5.9414,-0.99024 11.3858,-3.94289 17.1428,-5.71429 14.372,-4.42213 15.4083,-5.71428 25.7143,-5.71428 0.679,0 10.7882,-0.32019 11.4286,0 1.2047,0.60234 1.6525,2.2548 2.8571,2.85714 0.8519,0.42592 2.0053,-0.42592 2.8572,0 1.2046,0.60234 1.6524,2.25481 2.8571,2.85714 0.8518,0.42592 1.9536,-0.30117 2.8572,0 4.0406,1.34687 7.3879,4.36742 11.4285,5.71429 0.9035,0.30117 2.0053,-0.42592 2.8572,0 1.2046,0.60234 1.5794,2.43123 2.8571,2.85714 1.807,0.60234 3.9073,-0.60234 5.7143,0 2.5555,0.85184 3.473,4.22007 5.7143,5.71429 1.7719,1.18128 3.9423,1.67586 5.7143,2.85714 1.1206,0.74711 1.6524,2.25481 2.8571,2.85714 0.8518,0.42592 2.1837,-0.67343 2.8572,0 0.6734,0.67344 -0.426,2.00531 0,2.85715 0.6023,1.20467 1.6524,2.2548 2.8571,2.85714 0.8518,0.42592 2.4312,-0.85184 2.8571,0 1.2778,2.55551 0,5.71429 0,8.57143 0,1.90476 0,3.80952 0,5.71428 0,1.90477 0.462,3.8664 0,5.71429 -0.5165,2.066 -2.1837,3.69398 -2.8571,5.71429 -0.9035,2.71052 0.693,5.79959 0,8.57142 -0.5165,2.06601 -2.3406,3.64829 -2.8571,5.71429 -0.693,2.77184 0.9035,5.8609 0,8.57143 -0.6735,2.0203 -2.1838,3.69398 -2.8572,5.71428 -0.9035,2.71053 0.693,5.7996 0,8.57143 -0.5165,2.06601 -2.1837,3.69398 -2.8571,5.71429 -2.8572,8.57143 5.7143,-5.71429 0,8.57143 -1.2753,3.18825 -4.439,5.38317 -5.7143,8.57143 -0.7074,1.76852 0.462,3.86639 0,5.71428 -0.5165,2.06601 -2.1837,3.69398 -2.8572,5.71429 -5.4184,16.25535 -0.2111,6.24223 -5.7142,20 -0.791,1.97727 -1.9048,3.80952 -2.8572,5.71428 -1.9047,2.85715 -4.439,5.38317 -5.7143,8.57143 -0.7074,1.76853 0,3.80953 0,5.71429 -0.9524,2.85714 -1.5102,5.87769 -2.8571,8.57143 -0.6024,1.20467 -2.11,1.73647 -2.8572,2.85714 -3.5164,5.27472 -5.0549,11.86813 -8.5714,17.14286 -0.7471,1.12066 -2.4312,1.57939 -2.8571,2.85714 -0.6024,1.80701 0.4619,3.86639 0,5.71428 -3.4493,13.79699 -1.3578,-0.1416 -5.7143,8.57143 -0.4259,0.85184 0,1.90476 0,2.85715 -0.9524,1.90476 -1.6759,3.94236 -2.8572,5.71428 -0.7471,1.12067 -1.6524,2.25481 -2.8571,2.85714 -0.8518,0.42592 -2.4312,-0.85183 -2.8571,0 -0.8519,1.70368 0.8518,4.01062 0,5.71429 -0.426,0.85184 -2.0054,-0.42592 -2.8572,0 -1.2047,0.60234 -1.6525,2.2548 -2.8571,2.85714 -0.8519,0.42592 -2.0053,-0.42591 -2.8572,0 -11.8907,5.94537 3.0544,-0.19724 -2.8571,5.71429 -2.6819,2.6819 -16.8062,7.2939 -20,8.57143 -1.9773,0.79091 -3.737,2.06623 -5.7143,2.85714 -5.7127,2.28509 -11.4301,3.4292 -17.1429,5.71429 -1.9772,0.79091 -3.6939,2.1837 -5.7142,2.85714 -3.7253,1.24175 -7.6191,1.90476 -11.4286,2.85714 -3.8095,0.95238 -7.5258,2.42351 -11.4286,2.85714 -4.7328,0.52587 -9.5529,-0.52586 -14.2857,0 -10.7924,1.19916 -20.665,7.13629 -31.4286,8.57143 -7.5522,1.00696 -15.2574,-0.54283 -22.8571,0 -5.7784,0.41274 -11.3645,2.4444 -17.1429,2.85715 -7.5997,0.54283 -15.2903,-0.89022 -22.8571,0 -8.7204,1.02592 -17.0016,4.62519 -25.7143,5.71428 -6.6152,0.8269 -13.3333,0 -20,0 -8.57143,0 -17.15605,-0.47546 -25.71429,0 -8.61089,0.47838 -17.10203,2.40387 -25.71428,2.85714 -9.51065,0.50056 -19.09995,-0.99699 -28.57143,0 -8.73227,0.91919 -16.99391,4.68836 -25.71429,5.71429 -7.56686,0.89022 -15.27995,-0.7976 -22.85714,0 -10.58944,1.11468 -20.82859,4.70476 -31.42857,5.71429 -9.48091,0.90294 -19.04762,0 -28.57143,0 -17.14286,0 -34.28571,0 -51.42857,0 -58.09524,0 -116.19048,0 -174.28571,0 -12.38096,0 -24.76191,0 -37.14286,0 -11.42857,0 -22.90408,-1.0347 -34.28572,0 -19.34506,1.75864 -37.80552,9.58692 -57.14285,11.42857 -10.429,0.99324 -20.95238,0 -31.42857,0 -7.61905,0 -15.2381,0 -22.85715,0 -8.57143,0 -17.18146,-0.81265 -25.71428,0 -11.53403,1.09848 -22.757,4.56141 -34.28572,5.71428 -7.58123,0.75813 -15.23809,0 -22.85714,0 -10.3745,0 -45.92829,0 -60,0 -10.47619,0 -20.9954,-0.94847 -31.42857,0 -10.60422,0.96402 -20.83914,4.59961 -31.42857,5.71429 -7.57719,0.7976 -15.24863,-0.40045 -22.85715,0 -10.50485,0.55289 -20.92108,2.35679 -31.42857,2.85714 -9.51303,0.453 -19.04762,0 -28.57143,0 -16.190472,0 -32.380948,0 -48.571424,0 -20.952381,0 -41.904762,0 -62.8571431,0 -9.5238096,0 -19.0622819,0.52829 -28.5714289,0 -12.882707,-0.7157 -47.68216,-6.99464 -57.142857,-8.57143 -11.428571,-1.90476 -22.751687,-4.6158 -34.285717,-5.71428 -8.53282,-0.81265 -17.24774,1.33682 -25.71428,0 -9.82148,-1.55076 -18.73829,-7.09646 -28.57143,-8.57143 -9.41844,-1.41277 -19.10587,1.05173 -28.57143,0 -0.0361,-0.004 -45.37511,-11.34877 -45.71429,-11.42857 -50.4499,-11.87057 -4.44947,0.38917 -42.85714,-11.42857 -6.62683,-2.03903 -13.5287,-3.22533 -20,-5.71429 -5.96292,-2.29343 -11.24553,-6.11421 -17.14286,-8.57143 -9.06606,-3.77753 -22.57028,-6.5073 -31.42857,-11.42857 -4.16265,-2.31259 -7.16939,-6.44184 -11.42857,-8.57143 -3.51221,-1.7561 -7.91636,-1.10104 -11.42857,-2.85714 -6.79178,-3.39589 -11.90341,-9.04627 -17.14286,-14.28572 -0.95238,-0.95238 -1.90476,-1.90476 -2.85714,-2.85714 -0.95238,-0.95238 -2.43123,-1.57939 -2.85714,-2.85714 -0.60234,-1.80702 0.46197,-3.8664 0,-5.71429 -0.5165,-2.066 -1.90476,-3.80952 -2.85715,-5.71428 0,-2.85715 0.56034,-5.76977 0,-8.57143 -0.41764,-2.08823 -2.34064,-3.64828 -2.85714,-5.71429 -0.56187,-2.24747 0,-14.17164 0,-17.14285 0,-1.90477 0,-3.80953 0,-5.71429 0,-1.90476 -0.60234,-3.90727 0,-5.71429 0.42592,-1.27775 2.53048,-1.55048 2.85714,-2.85714 0.69296,-2.77183 -0.56033,-5.76977 0,-8.57143 2.2995,-11.49748 2.08494,-1.31272 5.71429,-8.57143 1.11578,-2.23156 3.21779,-11.78921 5.71429,-14.28571 1.50584,-1.50585 4.20843,-1.3513 5.71428,-2.85714 14.85021,-14.85021 -2.70847,-2.97609 11.42857,-14.28572 2.6814,-2.14511 5.82434,-3.65397 8.57143,-5.71428 1.0775,-0.80812 1.65247,-2.25481 2.85714,-2.85715 9.29273,-4.64636 6.79623,-0.72129 14.28572,-5.71428 4.81978,-3.21319 4.51808,-6.84381 11.42857,-8.57143 1.84789,-0.46197 3.90727,0.60234 5.71429,0 1.27775,-0.42592 1.57939,-2.43123 2.85714,-2.85714 1.80701,-0.60234 3.86639,0.46197 5.71428,0 2.06601,-0.5165 3.62606,-2.4395 5.71429,-2.85715 2.80166,-0.56033 5.8609,0.90351 8.57143,0 0.90351,-0.30117 0,-1.90476 0,-2.85714 2.85714,-0.95238 5.61822,-2.2665 8.57143,-2.85714 3.68481,-0.73696 10.76181,0.88097 14.28571,0 23.78149,-5.94537 -3.44888,0.19724 14.28572,-5.71429 0.9035,-0.30117 1.90476,0 2.85714,0 1.90476,0 3.80952,0 5.71428,0 1.90477,0 3.8664,0.46198 5.71429,0 13.79698,-3.44924 -0.1416,-1.35777 8.57143,-5.71428 1.70367,-0.85184 4.36741,1.34687 5.71428,0 0.67344,-0.67344 -0.67343,-2.18371 0,-2.85715 0.67344,-0.67343 2.00531,0.42592 2.85715,0 1.20467,-0.60233 1.65246,-2.2548 2.85714,-2.85714 0.85184,-0.42592 2.18371,0.67344 2.85714,0 0.67344,-0.67343 -0.42591,-2.00531 0,-2.85714 5.94537,-11.89075 -0.19724,3.05439 5.71429,-2.85714 0.67343,-0.67344 -0.67344,-2.18371 0,-2.85715 0.67343,-0.67343 2.18371,0.67344 2.85714,0 0.67344,-0.67343 -0.67343,-2.1837 0,-2.85714 0.67344,-0.67344 2.18371,0.67344 2.85714,0 5.91153,-5.91153 -9.0336,0.23109 2.85715,-5.71429 0.85183,-0.42591 2.1837,0.67344 2.85714,0 1.34687,-1.34687 -0.85184,-4.01061 0,-5.71428 1.8585,-3.717 3.85579,-1.99729 5.71429,-5.71429 0.42591,-0.85183 0,-1.90476 0,-2.85714 4.7619,-3.80952 9.52381,-7.61905 14.28571,-11.42857 z"
       id="path3763"
       inkscape:connector-curvature="0"
       transform="translate(0,352.36218)"
       sodipodi:nodetypes="ccssssssssssssssssssssssssssssssssssssssssssssssssssssssssssssssssccssssssssssssssssssssscsssssscsssssscssssssssssssssssccccscsssccccccssccccccccssccccscccscccccccccccssscssssssssssssssssssssssssssssssssssssssssccsssssssssscsssssssssssssssssssscsssssssscsscssscsssssscc"
       inkscape:export-xdpi="70"
       inkscape:export-ydpi="70" />
    <path
       sodipodi:type="star"
       style="fill:#ffffff;fill-opacity:1;stroke:none"
       id="path3813"
       sodipodi:sides="6"
       sodipodi:cx="162.85715"
       sodipodi:cy="107.14286"
       sodipodi:r1="7.634843"
       sodipodi:r2="12.731"
       sodipodi:arg1="1.3825748"
       sodipodi:arg2="-2.4789293"
       inkscape:flatsided="false"
       inkscape:rounded="0"
       inkscape:randomized="0"
       d="m 164.28572,114.64286 -11.46514,-15.332349 4.25566,12.819529 7.54564,-17.595276 -8.97421,10.095276 19.01077,-2.26293 -13.22986,-2.72425 11.46513,15.33235 -4.25566,-12.81953 -7.54563,17.59528 8.9742,-10.09528 -19.01077,2.26293 z"
       transform="translate(0,352.36218)"
       inkscape:transform-center-x="1.2389819"
       inkscape:transform-center-y="-2.4722266" />
    <path
       transform="translate(202.81807,484.58976)"
       sodipodi:type="star"
       style="fill:#ffffff;fill-opacity:1;stroke:none"
       id="path3813-8"
       sodipodi:sides="6"
       sodipodi:cx="162.85715"
       sodipodi:cy="107.14286"
       sodipodi:r1="7.6348429"
       sodipodi:r2="12.731"
       sodipodi:arg1="1.3825748"
       sodipodi:arg2="-2.4789293"
       inkscape:flatsided="false"
       inkscape:rounded="0"
       inkscape:randomized="0"
       d="m 164.28572,114.64286 -11.46514,-15.332349 4.25566,12.819529 7.54564,-17.595276 -8.97421,10.095276 19.01077,-2.26293 -13.22986,-2.72425 11.46513,15.33235 -4.25566,-12.81953 -7.54563,17.59528 8.9742,-10.09528 -19.01077,2.26293 z"
       inkscape:transform-center-x="1.2389819"
       inkscape:transform-center-y="-2.4722266" />
    <path
       transform="translate(530.1075,510.85373)"
       sodipodi:type="star"
       style="fill:#ffffff;fill-opacity:1;stroke:none"
       id="path3813-2"
       sodipodi:sides="6"
       sodipodi:cx="162.85715"
       sodipodi:cy="107.14286"
       sodipodi:r1="7.6348429"
       sodipodi:r2="12.731"
       sodipodi:arg1="1.3825748"
       sodipodi:arg2="-2.4789293"
       inkscape:flatsided="false"
       inkscape:rounded="0"
       inkscape:randomized="0"
       d="m 164.28572,114.64286 -11.46514,-15.332349 4.25566,12.819529 7.54564,-17.595276 -8.97421,10.095276 19.01077,-2.26293 -13.22986,-2.72425 11.46513,15.33235 -4.25566,-12.81953 -7.54563,17.59528 8.9742,-10.09528 -19.01077,2.26293 z"
       inkscape:transform-center-x="1.2389819"
       inkscape:transform-center-y="-2.4722266" />
    <path
       transform="translate(315.95516,658.336)"
       sodipodi:type="star"
       style="fill:#ffffff;fill-opacity:1;stroke:none"
       id="path3813-1"
       sodipodi:sides="6"
       sodipodi:cx="162.85715"
       sodipodi:cy="107.14286"
       sodipodi:r1="7.6348429"
       sodipodi:r2="12.731"
       sodipodi:arg1="1.3825748"
       sodipodi:arg2="-2.4789293"
       inkscape:flatsided="false"
       inkscape:rounded="0"
       inkscape:randomized="0"
       d="m 164.28572,114.64286 -11.46514,-15.332349 4.25566,12.819529 7.54564,-17.595276 -8.97421,10.095276 19.01077,-2.26293 -13.22986,-2.72425 11.46513,15.33235 -4.25566,-12.81953 -7.54563,17.59528 8.9742,-10.09528 -19.01077,2.26293 z"
       inkscape:transform-center-x="1.2389819"
       inkscape:transform-center-y="-2.4722266" />
    <path
       transform="translate(150.29014,619.9502)"
       sodipodi:type="star"
       style="fill:#ffffff;fill-opacity:1;stroke:none"
       id="path3813-6"
       sodipodi:sides="6"
       sodipodi:cx="162.85715"
       sodipodi:cy="107.14286"
       sodipodi:r1="7.6348429"
       sodipodi:r2="12.731"
       sodipodi:arg1="1.3825748"
       sodipodi:arg2="-2.4789293"
       inkscape:flatsided="false"
       inkscape:rounded="0"
       inkscape:randomized="0"
       d="m 164.28572,114.64286 -11.46514,-15.332349 4.25566,12.819529 7.54564,-17.595276 -8.97421,10.095276 19.01077,-2.26293 -13.22986,-2.72425 11.46513,15.33235 -4.25566,-12.81953 -7.54563,17.59528 8.9742,-10.09528 -19.01077,2.26293 z"
       inkscape:transform-center-x="1.2389819"
       inkscape:transform-center-y="-2.4722266" />
    <path
       transform="translate(33.112446,626.01112)"
       sodipodi:type="star"
       style="fill:#ffffff;fill-opacity:1;stroke:none"
       id="path3813-4"
       sodipodi:sides="6"
       sodipodi:cx="162.85715"
       sodipodi:cy="107.14286"
       sodipodi:r1="7.6348429"
       sodipodi:r2="12.731"
       sodipodi:arg1="1.3825748"
       sodipodi:arg2="-2.4789293"
       inkscape:flatsided="false"
       inkscape:rounded="0"
       inkscape:randomized="0"
       d="m 164.28572,114.64286 -11.46514,-15.332349 4.25566,12.819529 7.54564,-17.595276 -8.97421,10.095276 19.01077,-2.26293 -13.22986,-2.72425 11.46513,15.33235 -4.25566,-12.81953 -7.54563,17.59528 8.9742,-10.09528 -19.01077,2.26293 z"
       inkscape:transform-center-x="1.2389819"
       inkscape:transform-center-y="-2.4722266" />
    <path
       transform="translate(63.417023,698.7421)"
       sodipodi:type="star"
       style="fill:#ffffff;fill-opacity:1;stroke:none"
       id="path3813-0"
       sodipodi:sides="6"
       sodipodi:cx="162.85715"
       sodipodi:cy="107.14286"
       sodipodi:r1="7.6348429"
       sodipodi:r2="12.731"
       sodipodi:arg1="1.3825748"
       sodipodi:arg2="-2.4789293"
       inkscape:flatsided="false"
       inkscape:rounded="0"
       inkscape:randomized="0"
       d="m 164.28572,114.64286 -11.46514,-15.332349 4.25566,12.819529 7.54564,-17.595276 -8.97421,10.095276 19.01077,-2.26293 -13.22986,-2.72425 11.46513,15.33235 -4.25566,-12.81953 -7.54563,17.59528 8.9742,-10.09528 -19.01077,2.26293 z"
       inkscape:transform-center-x="1.2389819"
       inkscape:transform-center-y="-2.4722266" />
    <path
       transform="translate(330.09729,769.45278)"
       sodipodi:type="star"
       style="fill:#ffffff;fill-opacity:1;stroke:none"
       id="path3813-16"
       sodipodi:sides="6"
       sodipodi:cx="162.85715"
       sodipodi:cy="107.14286"
       sodipodi:r1="7.6348429"
       sodipodi:r2="12.731"
       sodipodi:arg1="1.3825748"
       sodipodi:arg2="-2.4789293"
       inkscape:flatsided="false"
       inkscape:rounded="0"
       inkscape:randomized="0"
       d="m 164.28572,114.64286 -11.46514,-15.332349 4.25566,12.819529 7.54564,-17.595276 -8.97421,10.095276 19.01077,-2.26293 -13.22986,-2.72425 11.46513,15.33235 -4.25566,-12.81953 -7.54563,17.59528 8.9742,-10.09528 -19.01077,2.26293 z"
       inkscape:transform-center-x="1.2389819"
       inkscape:transform-center-y="-2.4722266" />
    <path
       transform="translate(683.65069,785.61522)"
       sodipodi:type="star"
       style="fill:#ffffff;fill-opacity:1;stroke:none"
       id="path3813-7"
       sodipodi:sides="6"
       sodipodi:cx="162.85715"
       sodipodi:cy="107.14286"
       sodipodi:r1="7.6348429"
       sodipodi:r2="12.731"
       sodipodi:arg1="1.3825748"
       sodipodi:arg2="-2.4789293"
       inkscape:flatsided="false"
       inkscape:rounded="0"
       inkscape:randomized="0"
       d="m 164.28572,114.64286 -11.46514,-15.332349 4.25566,12.819529 7.54564,-17.595276 -8.97421,10.095276 19.01077,-2.26293 -13.22986,-2.72425 11.46513,15.33235 -4.25566,-12.81953 -7.54563,17.59528 8.9742,-10.09528 -19.01077,2.26293 z"
       inkscape:transform-center-x="1.2389819"
       inkscape:transform-center-y="-2.4722266" />
    <path
       transform="translate(816.99082,749.24973)"
       sodipodi:type="star"
       style="fill:#ffffff;fill-opacity:1;stroke:none"
       id="path3813-83"
       sodipodi:sides="6"
       sodipodi:cx="162.85715"
       sodipodi:cy="107.14286"
       sodipodi:r1="7.6348429"
       sodipodi:r2="12.731"
       sodipodi:arg1="1.3825748"
       sodipodi:arg2="-2.4789293"
       inkscape:flatsided="false"
       inkscape:rounded="0"
       inkscape:randomized="0"
       d="m 164.28572,114.64286 -11.46514,-15.332349 4.25566,12.819529 7.54564,-17.595276 -8.97421,10.095276 19.01077,-2.26293 -13.22986,-2.72425 11.46513,15.33235 -4.25566,-12.81953 -7.54563,17.59528 8.9742,-10.09528 -19.01077,2.26293 z"
       inkscape:transform-center-x="1.2389819"
       inkscape:transform-center-y="-2.4722266" />
    <path
       transform="translate(851.33601,609.84867)"
       sodipodi:type="star"
       style="fill:#ffffff;fill-opacity:1;stroke:none"
       id="path3813-25"
       sodipodi:sides="6"
       sodipodi:cx="162.85715"
       sodipodi:cy="107.14286"
       sodipodi:r1="7.6348429"
       sodipodi:r2="12.731"
       sodipodi:arg1="1.3825748"
       sodipodi:arg2="-2.4789293"
       inkscape:flatsided="false"
       inkscape:rounded="0"
       inkscape:randomized="0"
       d="m 164.28572,114.64286 -11.46514,-15.332349 4.25566,12.819529 7.54564,-17.595276 -8.97421,10.095276 19.01077,-2.26293 -13.22986,-2.72425 11.46513,15.33235 -4.25566,-12.81953 -7.54563,17.59528 8.9742,-10.09528 -19.01077,2.26293 z"
       inkscape:transform-center-x="1.2389819"
       inkscape:transform-center-y="-2.4722266" />
    <path
       transform="translate(825.07204,468.42732)"
       sodipodi:type="star"
       style="fill:#ffffff;fill-opacity:1;stroke:none"
       id="path3813-49"
       sodipodi:sides="6"
       sodipodi:cx="162.85715"
       sodipodi:cy="107.14286"
       sodipodi:r1="7.6348429"
       sodipodi:r2="12.731"
       sodipodi:arg1="1.3825748"
       sodipodi:arg2="-2.4789293"
       inkscape:flatsided="false"
       inkscape:rounded="0"
       inkscape:randomized="0"
       d="m 164.28572,114.64286 -11.46514,-15.332349 4.25566,12.819529 7.54564,-17.595276 -8.97421,10.095276 19.01077,-2.26293 -13.22986,-2.72425 11.46513,15.33235 -4.25566,-12.81953 -7.54563,17.59528 8.9742,-10.09528 -19.01077,2.26293 z"
       inkscape:transform-center-x="1.2389819"
       inkscape:transform-center-y="-2.4722266" />
    <path
       transform="translate(717.99587,419.94)"
       sodipodi:type="star"
       style="fill:#ffffff;fill-opacity:1;stroke:none"
       id="path3813-12"
       sodipodi:sides="6"
       sodipodi:cx="162.85715"
       sodipodi:cy="107.14286"
       sodipodi:r1="7.6348429"
       sodipodi:r2="12.731"
       sodipodi:arg1="1.3825748"
       sodipodi:arg2="-2.4789293"
       inkscape:flatsided="false"
       inkscape:rounded="0"
       inkscape:randomized="0"
       d="m 164.28572,114.64286 -11.46514,-15.332349 4.25566,12.819529 7.54564,-17.595276 -8.97421,10.095276 19.01077,-2.26293 -13.22986,-2.72425 11.46513,15.33235 -4.25566,-12.81953 -7.54563,17.59528 8.9742,-10.09528 -19.01077,2.26293 z"
       inkscape:transform-center-x="1.2389819"
       inkscape:transform-center-y="-2.4722266" />
    <path
       transform="translate(705.87404,605.80806)"
       sodipodi:type="star"
       style="fill:#ffffff;fill-opacity:1;stroke:none"
       id="path3813-11"
       sodipodi:sides="6"
       sodipodi:cx="162.85715"
       sodipodi:cy="107.14286"
       sodipodi:r1="7.6348429"
       sodipodi:r2="12.731"
       sodipodi:arg1="1.3825748"
       sodipodi:arg2="-2.4789293"
       inkscape:flatsided="false"
       inkscape:rounded="0"
       inkscape:randomized="0"
       d="m 164.28572,114.64286 -11.46514,-15.332349 4.25566,12.819529 7.54564,-17.595276 -8.97421,10.095276 19.01077,-2.26293 -13.22986,-2.72425 11.46513,15.33235 -4.25566,-12.81953 -7.54563,17.59528 8.9742,-10.09528 -19.01077,2.26293 z"
       inkscape:transform-center-x="1.2389819"
       inkscape:transform-center-y="-2.4722266" />
    <path
       transform="translate(552.33085,720.96545)"
       sodipodi:type="star"
       style="fill:#ffffff;fill-opacity:1;stroke:none"
       id="path3813-9"
       sodipodi:sides="6"
       sodipodi:cx="162.85715"
       sodipodi:cy="107.14286"
       sodipodi:r1="7.6348429"
       sodipodi:r2="12.731"
       sodipodi:arg1="1.3825748"
       sodipodi:arg2="-2.4789293"
       inkscape:flatsided="false"
       inkscape:rounded="0"
       inkscape:randomized="0"
       d="m 164.28572,114.64286 -11.46514,-15.332349 4.25566,12.819529 7.54564,-17.595276 -8.97421,10.095276 19.01077,-2.26293 -13.22986,-2.72425 11.46513,15.33235 -4.25566,-12.81953 -7.54563,17.59528 8.9742,-10.09528 -19.01077,2.26293 z"
       inkscape:transform-center-x="1.2389819"
       inkscape:transform-center-y="-2.4722266" />
    <path
       transform="translate(372.5237,587.62532)"
       sodipodi:type="star"
       style="fill:#ffffff;fill-opacity:1;stroke:none"
       id="path3813-10"
       sodipodi:sides="6"
       sodipodi:cx="162.85715"
       sodipodi:cy="107.14286"
       sodipodi:r1="7.6348429"
       sodipodi:r2="12.731"
       sodipodi:arg1="1.3825748"
       sodipodi:arg2="-2.4789293"
       inkscape:flatsided="false"
       inkscape:rounded="0"
       inkscape:randomized="0"
       d="m 164.28572,114.64286 -11.46514,-15.332349 4.25566,12.819529 7.54564,-17.595276 -8.97421,10.095276 19.01077,-2.26293 -13.22986,-2.72425 11.46513,15.33235 -4.25566,-12.81953 -7.54563,17.59528 8.9742,-10.09528 -19.01077,2.26293 z"
       inkscape:transform-center-x="1.2389819"
       inkscape:transform-center-y="-2.4722266" />
    <path
       transform="translate(326.05668,355.29023)"
       sodipodi:type="star"
       style="fill:#ffffff;fill-opacity:1;stroke:none"
       id="path3813-01"
       sodipodi:sides="6"
       sodipodi:cx="162.85715"
       sodipodi:cy="107.14286"
       sodipodi:r1="7.6348429"
       sodipodi:r2="12.731"
       sodipodi:arg1="1.3825748"
       sodipodi:arg2="-2.4789293"
       inkscape:flatsided="false"
       inkscape:rounded="0"
       inkscape:randomized="0"
       d="m 164.28572,114.64286 -11.46514,-15.332349 4.25566,12.819529 7.54564,-17.595276 -8.97421,10.095276 19.01077,-2.26293 -13.22986,-2.72425 11.46513,15.33235 -4.25566,-12.81953 -7.54563,17.59528 8.9742,-10.09528 -19.01077,2.26293 z"
       inkscape:transform-center-x="1.2389819"
       inkscape:transform-center-y="-2.4722266" />
    <path
       transform="translate(580.61513,298.72169)"
       sodipodi:type="star"
       style="fill:#ffffff;fill-opacity:1;stroke:none"
       id="path3813-14"
       sodipodi:sides="6"
       sodipodi:cx="162.85715"
       sodipodi:cy="107.14286"
       sodipodi:r1="7.6348429"
       sodipodi:r2="12.731"
       sodipodi:arg1="1.3825748"
       sodipodi:arg2="-2.4789293"
       inkscape:flatsided="false"
       inkscape:rounded="0"
       inkscape:randomized="0"
       d="m 164.28572,114.64286 -11.46514,-15.332349 4.25566,12.819529 7.54564,-17.595276 -8.97421,10.095276 19.01077,-2.26293 -13.22986,-2.72425 11.46513,15.33235 -4.25566,-12.81953 -7.54563,17.59528 8.9742,-10.09528 -19.01077,2.26293 z"
       inkscape:transform-center-x="1.2389819"
       inkscape:transform-center-y="-2.4722266" />
    <path
       transform="translate(542.22933,294.68108)"
       sodipodi:type="star"
       style="fill:#ffffff;fill-opacity:1;stroke:none"
       id="path3813-40"
       sodipodi:sides="6"
       sodipodi:cx="162.85715"
       sodipodi:cy="107.14286"
       sodipodi:r1="7.6348429"
       sodipodi:r2="12.731"
       sodipodi:arg1="1.3825748"
       sodipodi:arg2="-2.4789293"
       inkscape:flatsided="false"
       inkscape:rounded="0"
       inkscape:randomized="0"
       d="m 164.28572,114.64286 -11.46514,-15.332349 4.25566,12.819529 7.54564,-17.595276 -8.97421,10.095276 19.01077,-2.26293 -13.22986,-2.72425 11.46513,15.33235 -4.25566,-12.81953 -7.54563,17.59528 8.9742,-10.09528 -19.01077,2.26293 z"
       inkscape:transform-center-x="1.2389819"
       inkscape:transform-center-y="-2.4722266" />
    <path
       transform="translate(93.721599,371.45267)"
       sodipodi:type="star"
       style="fill:#ffffff;fill-opacity:1;stroke:none"
       id="path3813-3"
       sodipodi:sides="6"
       sodipodi:cx="162.85715"
       sodipodi:cy="107.14286"
       sodipodi:r1="7.6348429"
       sodipodi:r2="12.731"
       sodipodi:arg1="1.3825748"
       sodipodi:arg2="-2.4789293"
       inkscape:flatsided="false"
       inkscape:rounded="0"
       inkscape:randomized="0"
       d="m 164.28572,114.64286 -11.46514,-15.332349 4.25566,12.819529 7.54564,-17.595276 -8.97421,10.095276 19.01077,-2.26293 -13.22986,-2.72425 11.46513,15.33235 -4.25566,-12.81953 -7.54563,17.59528 8.9742,-10.09528 -19.01077,2.26293 z"
       inkscape:transform-center-x="1.2389819"
       inkscape:transform-center-y="-2.4722266" />
    <path
       transform="translate(-21.435791,434.08213)"
       sodipodi:type="star"
       style="fill:#ffffff;fill-opacity:1;stroke:none"
       id="path3813-98"
       sodipodi:sides="6"
       sodipodi:cx="162.85715"
       sodipodi:cy="107.14286"
       sodipodi:r1="7.6348429"
       sodipodi:r2="12.731"
       sodipodi:arg1="1.3825748"
       sodipodi:arg2="-2.4789293"
       inkscape:flatsided="false"
       inkscape:rounded="0"
       inkscape:randomized="0"
       d="m 164.28572,114.64286 -11.46514,-15.332349 4.25566,12.819529 7.54564,-17.595276 -8.97421,10.095276 19.01077,-2.26293 -13.22986,-2.72425 11.46513,15.33235 -4.25566,-12.81953 -7.54563,17.59528 8.9742,-10.09528 -19.01077,2.26293 z"
       inkscape:transform-center-x="1.2389819"
       inkscape:transform-center-y="-2.4722266" />
    <path
       transform="translate(-51.740367,508.83342)"
       sodipodi:type="star"
       style="fill:#ffffff;fill-opacity:1;stroke:none"
       id="path3813-13"
       sodipodi:sides="6"
       sodipodi:cx="162.85715"
       sodipodi:cy="107.14286"
       sodipodi:r1="7.6348429"
       sodipodi:r2="12.731"
       sodipodi:arg1="1.3825748"
       sodipodi:arg2="-2.4789293"
       inkscape:flatsided="false"
       inkscape:rounded="0"
       inkscape:randomized="0"
       d="m 164.28572,114.64286 -11.46514,-15.332349 4.25566,12.819529 7.54564,-17.595276 -8.97421,10.095276 19.01077,-2.26293 -13.22986,-2.72425 11.46513,15.33235 -4.25566,-12.81953 -7.54563,17.59528 8.9742,-10.09528 -19.01077,2.26293 z"
       inkscape:transform-center-x="1.2389819"
       inkscape:transform-center-y="-2.4722266" />
    <path
       transform="translate(-37.598232,621.97051)"
       sodipodi:type="star"
       style="fill:#ffffff;fill-opacity:1;stroke:none"
       id="path3813-72"
       sodipodi:sides="6"
       sodipodi:cx="162.85715"
       sodipodi:cy="107.14286"
       sodipodi:r1="7.6348429"
       sodipodi:r2="12.731"
       sodipodi:arg1="1.3825748"
       sodipodi:arg2="-2.4789293"
       inkscape:flatsided="false"
       inkscape:rounded="0"
       inkscape:randomized="0"
       d="m 164.28572,114.64286 -11.46514,-15.332349 4.25566,12.819529 7.54564,-17.595276 -8.97421,10.095276 19.01077,-2.26293 -13.22986,-2.72425 11.46513,15.33235 -4.25566,-12.81953 -7.54563,17.59528 8.9742,-10.09528 -19.01077,2.26293 z"
       inkscape:transform-center-x="1.2389819"
       inkscape:transform-center-y="-2.4722266" />
    <path
       transform="translate(-126.49166,666.41722)"
       sodipodi:type="star"
       style="fill:#ffffff;fill-opacity:1;stroke:none"
       id="path3813-06"
       sodipodi:sides="6"
       sodipodi:cx="162.85715"
       sodipodi:cy="107.14286"
       sodipodi:r1="7.6348429"
       sodipodi:r2="12.731"
       sodipodi:arg1="1.3825748"
       sodipodi:arg2="-2.4789293"
       inkscape:flatsided="false"
       inkscape:rounded="0"
       inkscape:randomized="0"
       d="m 164.28572,114.64286 -11.46514,-15.332349 4.25566,12.819529 7.54564,-17.595276 -8.97421,10.095276 19.01077,-2.26293 -13.22986,-2.72425 11.46513,15.33235 -4.25566,-12.81953 -7.54563,17.59528 8.9742,-10.09528 -19.01077,2.26293 z"
       inkscape:transform-center-x="1.2389819"
       inkscape:transform-center-y="-2.4722266" />
    <path
       transform="translate(-110.32921,329.02627)"
       sodipodi:type="star"
       style="fill:#ffffff;fill-opacity:1;stroke:none"
       id="path3813-18"
       sodipodi:sides="6"
       sodipodi:cx="162.85715"
       sodipodi:cy="107.14286"
       sodipodi:r1="7.6348429"
       sodipodi:r2="12.731"
       sodipodi:arg1="1.3825748"
       sodipodi:arg2="-2.4789293"
       inkscape:flatsided="false"
       inkscape:rounded="0"
       inkscape:randomized="0"
       d="m 164.28572,114.64286 -11.46514,-15.332349 4.25566,12.819529 7.54564,-17.595276 -8.97421,10.095276 19.01077,-2.26293 -13.22986,-2.72425 11.46513,15.33235 -4.25566,-12.81953 -7.54563,17.59528 8.9742,-10.09528 -19.01077,2.26293 z"
       inkscape:transform-center-x="1.2389819"
       inkscape:transform-center-y="-2.4722266" />
    <path
       transform="translate(-63.862198,282.55925)"
       sodipodi:type="star"
       style="fill:#ffffff;fill-opacity:1;stroke:none"
       id="path3813-03"
       sodipodi:sides="6"
       sodipodi:cx="162.85715"
       sodipodi:cy="107.14286"
       sodipodi:r1="7.6348429"
       sodipodi:r2="12.731"
       sodipodi:arg1="1.3825748"
       sodipodi:arg2="-2.4789293"
       inkscape:flatsided="false"
       inkscape:rounded="0"
       inkscape:randomized="0"
       d="m 164.28572,114.64286 -11.46514,-15.332349 4.25566,12.819529 7.54564,-17.595276 -8.97421,10.095276 19.01077,-2.26293 -13.22986,-2.72425 11.46513,15.33235 -4.25566,-12.81953 -7.54563,17.59528 8.9742,-10.09528 -19.01077,2.26293 z"
       inkscape:transform-center-x="1.2389819"
       inkscape:transform-center-y="-2.4722266" />
    <path
       transform="translate(29.071836,373.47298)"
       sodipodi:type="star"
       style="fill:#ffffff;fill-opacity:1;stroke:none"
       id="path3813-32"
       sodipodi:sides="6"
       sodipodi:cx="162.85715"
       sodipodi:cy="107.14286"
       sodipodi:r1="7.6348429"
       sodipodi:r2="12.731"
       sodipodi:arg1="1.3825748"
       sodipodi:arg2="-2.4789293"
       inkscape:flatsided="false"
       inkscape:rounded="0"
       inkscape:randomized="0"
       d="m 164.28572,114.64286 -11.46514,-15.332349 4.25566,12.819529 7.54564,-17.595276 -8.97421,10.095276 19.01077,-2.26293 -13.22986,-2.72425 11.46513,15.33235 -4.25566,-12.81953 -7.54563,17.59528 8.9742,-10.09528 -19.01077,2.26293 z"
       inkscape:transform-center-x="1.2389819"
       inkscape:transform-center-y="-2.4722266" />
    <path
       transform="translate(-181.03989,506.81312)"
       sodipodi:type="star"
       style="fill:#ffffff;fill-opacity:1;stroke:none"
       id="path3813-63"
       sodipodi:sides="6"
       sodipodi:cx="162.85715"
       sodipodi:cy="107.14286"
       sodipodi:r1="7.6348429"
       sodipodi:r2="12.731"
       sodipodi:arg1="1.3825748"
       sodipodi:arg2="-2.4789293"
       inkscape:flatsided="false"
       inkscape:rounded="0"
       inkscape:randomized="0"
       d="m 164.28572,114.64286 -11.46514,-15.332349 4.25566,12.819529 7.54564,-17.595276 -8.97421,10.095276 19.01077,-2.26293 -13.22986,-2.72425 11.46513,15.33235 -4.25566,-12.81953 -7.54563,17.59528 8.9742,-10.09528 -19.01077,2.26293 z"
       inkscape:transform-center-x="1.2389819"
       inkscape:transform-center-y="-2.4722266" />
    <path
       transform="translate(-7.2936553,577.52379)"
       sodipodi:type="star"
       style="fill:#ffffff;fill-opacity:1;stroke:none"
       id="path3813-060"
       sodipodi:sides="6"
       sodipodi:cx="162.85715"
       sodipodi:cy="107.14286"
       sodipodi:r1="7.6348429"
       sodipodi:r2="12.731"
       sodipodi:arg1="1.3825748"
       sodipodi:arg2="-2.4789293"
       inkscape:flatsided="false"
       inkscape:rounded="0"
       inkscape:randomized="0"
       d="m 164.28572,114.64286 -11.46514,-15.332349 4.25566,12.819529 7.54564,-17.595276 -8.97421,10.095276 19.01077,-2.26293 -13.22986,-2.72425 11.46513,15.33235 -4.25566,-12.81953 -7.54563,17.59528 8.9742,-10.09528 -19.01077,2.26293 z"
       inkscape:transform-center-x="1.2389819"
       inkscape:transform-center-y="-2.4722266" />
    <path
       transform="translate(394.74706,492.67098)"
       sodipodi:type="star"
       style="fill:#ffffff;fill-opacity:1;stroke:none"
       id="path3813-5"
       sodipodi:sides="6"
       sodipodi:cx="162.85715"
       sodipodi:cy="107.14286"
       sodipodi:r1="7.6348429"
       sodipodi:r2="12.731"
       sodipodi:arg1="1.3825748"
       sodipodi:arg2="-2.4789293"
       inkscape:flatsided="false"
       inkscape:rounded="0"
       inkscape:randomized="0"
       d="m 164.28572,114.64286 -11.46514,-15.332349 4.25566,12.819529 7.54564,-17.595276 -8.97421,10.095276 19.01077,-2.26293 -13.22986,-2.72425 11.46513,15.33235 -4.25566,-12.81953 -7.54563,17.59528 8.9742,-10.09528 -19.01077,2.26293 z"
       inkscape:transform-center-x="1.2389819"
       inkscape:transform-center-y="-2.4722266" />
    <path
       transform="translate(453.33591,462.3664)"
       sodipodi:type="star"
       style="fill:#ffffff;fill-opacity:1;stroke:none"
       id="path3813-26"
       sodipodi:sides="6"
       sodipodi:cx="162.85715"
       sodipodi:cy="107.14286"
       sodipodi:r1="7.6348429"
       sodipodi:r2="12.731"
       sodipodi:arg1="1.3825748"
       sodipodi:arg2="-2.4789293"
       inkscape:flatsided="false"
       inkscape:rounded="0"
       inkscape:randomized="0"
       d="m 164.28572,114.64286 -11.46514,-15.332349 4.25566,12.819529 7.54564,-17.595276 -8.97421,10.095276 19.01077,-2.26293 -13.22986,-2.72425 11.46513,15.33235 -4.25566,-12.81953 -7.54563,17.59528 8.9742,-10.09528 -19.01077,2.26293 z"
       inkscape:transform-center-x="1.2389819"
       inkscape:transform-center-y="-2.4722266" />
    <path
       transform="translate(111.90434,474.48823)"
       sodipodi:type="star"
       style="fill:#ffffff;fill-opacity:1;stroke:none"
       id="path3813-39"
       sodipodi:sides="6"
       sodipodi:cx="162.85715"
       sodipodi:cy="107.14286"
       sodipodi:r1="7.6348429"
       sodipodi:r2="12.731"
       sodipodi:arg1="1.3825748"
       sodipodi:arg2="-2.4789293"
       inkscape:flatsided="false"
       inkscape:rounded="0"
       inkscape:randomized="0"
       d="m 164.28572,114.64286 -11.46514,-15.332349 4.25566,12.819529 7.54564,-17.595276 -8.97421,10.095276 19.01077,-2.26293 -13.22986,-2.72425 11.46513,15.33235 -4.25566,-12.81953 -7.54563,17.59528 8.9742,-10.09528 -19.01077,2.26293 z"
       inkscape:transform-center-x="1.2389819"
       inkscape:transform-center-y="-2.4722266" />
    <path
       transform="translate(119.98557,563.38166)"
       sodipodi:type="star"
       style="fill:#ffffff;fill-opacity:1;stroke:none"
       id="path3813-78"
       sodipodi:sides="6"
       sodipodi:cx="162.85715"
       sodipodi:cy="107.14286"
       sodipodi:r1="7.6348429"
       sodipodi:r2="12.731"
       sodipodi:arg1="1.3825748"
       sodipodi:arg2="-2.4789293"
       inkscape:flatsided="false"
       inkscape:rounded="0"
       inkscape:randomized="0"
       d="m 164.28572,114.64286 -11.46514,-15.332349 4.25566,12.819529 7.54564,-17.595276 -8.97421,10.095276 19.01077,-2.26293 -13.22986,-2.72425 11.46513,15.33235 -4.25566,-12.81953 -7.54563,17.59528 8.9742,-10.09528 -19.01077,2.26293 z"
       inkscape:transform-center-x="1.2389819"
       inkscape:transform-center-y="-2.4722266" />
    <path
       transform="translate(119.98557,518.93495)"
       sodipodi:type="star"
       style="fill:#ffffff;fill-opacity:1;stroke:none"
       id="path3813-58"
       sodipodi:sides="6"
       sodipodi:cx="162.85715"
       sodipodi:cy="107.14286"
       sodipodi:r1="7.6348429"
       sodipodi:r2="12.731"
       sodipodi:arg1="1.3825748"
       sodipodi:arg2="-2.4789293"
       inkscape:flatsided="false"
       inkscape:rounded="0"
       inkscape:randomized="0"
       d="m 164.28572,114.64286 -11.46514,-15.332349 4.25566,12.819529 7.54564,-17.595276 -8.97421,10.095276 19.01077,-2.26293 -13.22986,-2.72425 11.46513,15.33235 -4.25566,-12.81953 -7.54563,17.59528 8.9742,-10.09528 -19.01077,2.26293 z"
       inkscape:transform-center-x="1.2389819"
       inkscape:transform-center-y="-2.4722266" />
    <path
       transform="translate(231.10235,668.43752)"
       sodipodi:type="star"
       style="fill:#ffffff;fill-opacity:1;stroke:none"
       id="path3813-91"
       sodipodi:sides="6"
       sodipodi:cx="162.85715"
       sodipodi:cy="107.14286"
       sodipodi:r1="7.6348429"
       sodipodi:r2="12.731"
       sodipodi:arg1="1.3825748"
       sodipodi:arg2="-2.4789293"
       inkscape:flatsided="false"
       inkscape:rounded="0"
       inkscape:randomized="0"
       d="m 164.28572,114.64286 -11.46514,-15.332349 4.25566,12.819529 7.54564,-17.595276 -8.97421,10.095276 19.01077,-2.26293 -13.22986,-2.72425 11.46513,15.33235 -4.25566,-12.81953 -7.54563,17.59528 8.9742,-10.09528 -19.01077,2.26293 z"
       inkscape:transform-center-x="1.2389819"
       inkscape:transform-center-y="-2.4722266" />
    <path
       transform="translate(210.89929,725.00606)"
       sodipodi:type="star"
       style="fill:#ffffff;fill-opacity:1;stroke:none"
       id="path3813-93"
       sodipodi:sides="6"
       sodipodi:cx="162.85715"
       sodipodi:cy="107.14286"
       sodipodi:r1="7.6348429"
       sodipodi:r2="12.731"
       sodipodi:arg1="1.3825748"
       sodipodi:arg2="-2.4789293"
       inkscape:flatsided="false"
       inkscape:rounded="0"
       inkscape:randomized="0"
       d="m 164.28572,114.64286 -11.46514,-15.332349 4.25566,12.819529 7.54564,-17.595276 -8.97421,10.095276 19.01077,-2.26293 -13.22986,-2.72425 11.46513,15.33235 -4.25566,-12.81953 -7.54563,17.59528 8.9742,-10.09528 -19.01077,2.26293 z"
       inkscape:transform-center-x="1.2389819"
       inkscape:transform-center-y="-2.4722266" />
    <path
       transform="translate(75.538853,737.1279)"
       sodipodi:type="star"
       style="fill:#ffffff;fill-opacity:1;stroke:none"
       id="path3813-28"
       sodipodi:sides="6"
       sodipodi:cx="162.85715"
       sodipodi:cy="107.14286"
       sodipodi:r1="7.6348429"
       sodipodi:r2="12.731"
       sodipodi:arg1="1.3825748"
       sodipodi:arg2="-2.4789293"
       inkscape:flatsided="false"
       inkscape:rounded="0"
       inkscape:randomized="0"
       d="m 164.28572,114.64286 -11.46514,-15.332349 4.25566,12.819529 7.54564,-17.595276 -8.97421,10.095276 19.01077,-2.26293 -13.22986,-2.72425 11.46513,15.33235 -4.25566,-12.81953 -7.54563,17.59528 8.9742,-10.09528 -19.01077,2.26293 z"
       inkscape:transform-center-x="1.2389819"
       inkscape:transform-center-y="-2.4722266" />
    <path
       transform="translate(-41.638842,753.29034)"
       sodipodi:type="star"
       style="fill:#ffffff;fill-opacity:1;stroke:none"
       id="path3813-55"
       sodipodi:sides="6"
       sodipodi:cx="162.85715"
       sodipodi:cy="107.14286"
       sodipodi:r1="7.6348429"
       sodipodi:r2="12.731"
       sodipodi:arg1="1.3825748"
       sodipodi:arg2="-2.4789293"
       inkscape:flatsided="false"
       inkscape:rounded="0"
       inkscape:randomized="0"
       d="m 164.28572,114.64286 -11.46514,-15.332349 4.25566,12.819529 7.54564,-17.595276 -8.97421,10.095276 19.01077,-2.26293 -13.22986,-2.72425 11.46513,15.33235 -4.25566,-12.81953 -7.54563,17.59528 8.9742,-10.09528 -19.01077,2.26293 z"
       inkscape:transform-center-x="1.2389819"
       inkscape:transform-center-y="-2.4722266" />
    <path
       transform="translate(43.213972,785.61522)"
       sodipodi:type="star"
       style="fill:#ffffff;fill-opacity:1;stroke:none"
       id="path3813-17"
       sodipodi:sides="6"
       sodipodi:cx="162.85715"
       sodipodi:cy="107.14286"
       sodipodi:r1="7.6348429"
       sodipodi:r2="12.731"
       sodipodi:arg1="1.3825748"
       sodipodi:arg2="-2.4789293"
       inkscape:flatsided="false"
       inkscape:rounded="0"
       inkscape:randomized="0"
       d="m 164.28572,114.64286 -11.46514,-15.332349 4.25566,12.819529 7.54564,-17.595276 -8.97421,10.095276 19.01077,-2.26293 -13.22986,-2.72425 11.46513,15.33235 -4.25566,-12.81953 -7.54563,17.59528 8.9742,-10.09528 -19.01077,2.26293 z"
       inkscape:transform-center-x="1.2389819"
       inkscape:transform-center-y="-2.4722266" />
    <path
       transform="translate(328.07699,813.89949)"
       sodipodi:type="star"
       style="fill:#ffffff;fill-opacity:1;stroke:none"
       id="path3813-320"
       sodipodi:sides="6"
       sodipodi:cx="162.85715"
       sodipodi:cy="107.14286"
       sodipodi:r1="7.6348429"
       sodipodi:r2="12.731"
       sodipodi:arg1="1.3825748"
       sodipodi:arg2="-2.4789293"
       inkscape:flatsided="false"
       inkscape:rounded="0"
       inkscape:randomized="0"
       d="m 164.28572,114.64286 -11.46514,-15.332349 4.25566,12.819529 7.54564,-17.595276 -8.97421,10.095276 19.01077,-2.26293 -13.22986,-2.72425 11.46513,15.33235 -4.25566,-12.81953 -7.54563,17.59528 8.9742,-10.09528 -19.01077,2.26293 z"
       inkscape:transform-center-x="1.2389819"
       inkscape:transform-center-y="-2.4722266" />
    <path
       transform="translate(461.41713,815.91979)"
       sodipodi:type="star"
       style="fill:#ffffff;fill-opacity:1;stroke:none"
       id="path3813-68"
       sodipodi:sides="6"
       sodipodi:cx="162.85715"
       sodipodi:cy="107.14286"
       sodipodi:r1="7.6348429"
       sodipodi:r2="12.731"
       sodipodi:arg1="1.3825748"
       sodipodi:arg2="-2.4789293"
       inkscape:flatsided="false"
       inkscape:rounded="0"
       inkscape:randomized="0"
       d="m 164.28572,114.64286 -11.46514,-15.332349 4.25566,12.819529 7.54564,-17.595276 -8.97421,10.095276 19.01077,-2.26293 -13.22986,-2.72425 11.46513,15.33235 -4.25566,-12.81953 -7.54563,17.59528 8.9742,-10.09528 -19.01077,2.26293 z"
       inkscape:transform-center-x="1.2389819"
       inkscape:transform-center-y="-2.4722266" />
    <path
       transform="translate(606.87909,805.81827)"
       sodipodi:type="star"
       style="fill:#ffffff;fill-opacity:1;stroke:none"
       id="path3813-07"
       sodipodi:sides="6"
       sodipodi:cx="162.85715"
       sodipodi:cy="107.14286"
       sodipodi:r1="7.6348429"
       sodipodi:r2="12.731"
       sodipodi:arg1="1.3825748"
       sodipodi:arg2="-2.4789293"
       inkscape:flatsided="false"
       inkscape:rounded="0"
       inkscape:randomized="0"
       d="m 164.28572,114.64286 -11.46514,-15.332349 4.25566,12.819529 7.54564,-17.595276 -8.97421,10.095276 19.01077,-2.26293 -13.22986,-2.72425 11.46513,15.33235 -4.25566,-12.81953 -7.54563,17.59528 8.9742,-10.09528 -19.01077,2.26293 z"
       inkscape:transform-center-x="1.2389819"
       inkscape:transform-center-y="-2.4722266" />
    <path
       transform="translate(693.75221,729.04667)"
       sodipodi:type="star"
       style="fill:#ffffff;fill-opacity:1;stroke:none"
       id="path3813-95"
       sodipodi:sides="6"
       sodipodi:cx="162.85715"
       sodipodi:cy="107.14286"
       sodipodi:r1="7.6348429"
       sodipodi:r2="12.731"
       sodipodi:arg1="1.3825748"
       sodipodi:arg2="-2.4789293"
       inkscape:flatsided="false"
       inkscape:rounded="0"
       inkscape:randomized="0"
       d="m 164.28572,114.64286 -11.46514,-15.332349 4.25566,12.819529 7.54564,-17.595276 -8.97421,10.095276 19.01077,-2.26293 -13.22986,-2.72425 11.46513,15.33235 -4.25566,-12.81953 -7.54563,17.59528 8.9742,-10.09528 -19.01077,2.26293 z"
       inkscape:transform-center-x="1.2389819"
       inkscape:transform-center-y="-2.4722266" />
    <path
       transform="translate(463.43743,547.21922)"
       sodipodi:type="star"
       style="fill:#ffffff;fill-opacity:1;stroke:none"
       id="path3813-45"
       sodipodi:sides="6"
       sodipodi:cx="162.85715"
       sodipodi:cy="107.14286"
       sodipodi:r1="7.6348429"
       sodipodi:r2="12.731"
       sodipodi:arg1="1.3825748"
       sodipodi:arg2="-2.4789293"
       inkscape:flatsided="false"
       inkscape:rounded="0"
       inkscape:randomized="0"
       d="m 164.28572,114.64286 -11.46514,-15.332349 4.25566,12.819529 7.54564,-17.595276 -8.97421,10.095276 19.01077,-2.26293 -13.22986,-2.72425 11.46513,15.33235 -4.25566,-12.81953 -7.54563,17.59528 8.9742,-10.09528 -19.01077,2.26293 z"
       inkscape:transform-center-x="1.2389819"
       inkscape:transform-center-y="-2.4722266" />
    <path
       transform="translate(441.21407,646.21417)"
       sodipodi:type="star"
       style="fill:#ffffff;fill-opacity:1;stroke:none"
       id="path3813-46"
       sodipodi:sides="6"
       sodipodi:cx="162.85715"
       sodipodi:cy="107.14286"
       sodipodi:r1="7.6348429"
       sodipodi:r2="12.731"
       sodipodi:arg1="1.3825748"
       sodipodi:arg2="-2.4789293"
       inkscape:flatsided="false"
       inkscape:rounded="0"
       inkscape:randomized="0"
       d="m 164.28572,114.64286 -11.46514,-15.332349 4.25566,12.819529 7.54564,-17.595276 -8.97421,10.095276 19.01077,-2.26293 -13.22986,-2.72425 11.46513,15.33235 -4.25566,-12.81953 -7.54563,17.59528 8.9742,-10.09528 -19.01077,2.26293 z"
       inkscape:transform-center-x="1.2389819"
       inkscape:transform-center-y="-2.4722266" />
    <path
       transform="translate(536.16841,658.336)"
       sodipodi:type="star"
       style="fill:#ffffff;fill-opacity:1;stroke:none"
       id="path3813-59"
       sodipodi:sides="6"
       sodipodi:cx="162.85715"
       sodipodi:cy="107.14286"
       sodipodi:r1="7.6348429"
       sodipodi:r2="12.731"
       sodipodi:arg1="1.3825748"
       sodipodi:arg2="-2.4789293"
       inkscape:flatsided="false"
       inkscape:rounded="0"
       inkscape:randomized="0"
       d="m 164.28572,114.64286 -11.46514,-15.332349 4.25566,12.819529 7.54564,-17.595276 -8.97421,10.095276 19.01077,-2.26293 -13.22986,-2.72425 11.46513,15.33235 -4.25566,-12.81953 -7.54563,17.59528 8.9742,-10.09528 -19.01077,2.26293 z"
       inkscape:transform-center-x="1.2389819"
       inkscape:transform-center-y="-2.4722266" />
    <path
       transform="translate(602.83848,585.60501)"
       sodipodi:type="star"
       style="fill:#ffffff;fill-opacity:1;stroke:none"
       id="path3813-785"
       sodipodi:sides="6"
       sodipodi:cx="162.85715"
       sodipodi:cy="107.14286"
       sodipodi:r1="7.6348429"
       sodipodi:r2="12.731"
       sodipodi:arg1="1.3825748"
       sodipodi:arg2="-2.4789293"
       inkscape:flatsided="false"
       inkscape:rounded="0"
       inkscape:randomized="0"
       d="m 164.28572,114.64286 -11.46514,-15.332349 4.25566,12.819529 7.54564,-17.595276 -8.97421,10.095276 19.01077,-2.26293 -13.22986,-2.72425 11.46513,15.33235 -4.25566,-12.81953 -7.54563,17.59528 8.9742,-10.09528 -19.01077,2.26293 z"
       inkscape:transform-center-x="1.2389819"
       inkscape:transform-center-y="-2.4722266" />
    <path
       transform="translate(657.38672,518.93495)"
       sodipodi:type="star"
       style="fill:#ffffff;fill-opacity:1;stroke:none"
       id="path3813-53"
       sodipodi:sides="6"
       sodipodi:cx="162.85715"
       sodipodi:cy="107.14286"
       sodipodi:r1="7.6348429"
       sodipodi:r2="12.731"
       sodipodi:arg1="1.3825748"
       sodipodi:arg2="-2.4789293"
       inkscape:flatsided="false"
       inkscape:rounded="0"
       inkscape:randomized="0"
       d="m 164.28572,114.64286 -11.46514,-15.332349 4.25566,12.819529 7.54564,-17.595276 -8.97421,10.095276 19.01077,-2.26293 -13.22986,-2.72425 11.46513,15.33235 -4.25566,-12.81953 -7.54563,17.59528 8.9742,-10.09528 -19.01077,2.26293 z"
       inkscape:transform-center-x="1.2389819"
       inkscape:transform-center-y="-2.4722266" />
    <path
       transform="translate(667.48824,458.32579)"
       sodipodi:type="star"
       style="fill:#ffffff;fill-opacity:1;stroke:none"
       id="path3813-48"
       sodipodi:sides="6"
       sodipodi:cx="162.85715"
       sodipodi:cy="107.14286"
       sodipodi:r1="7.6348429"
       sodipodi:r2="12.731"
       sodipodi:arg1="1.3825748"
       sodipodi:arg2="-2.4789293"
       inkscape:flatsided="false"
       inkscape:rounded="0"
       inkscape:randomized="0"
       d="m 164.28572,114.64286 -11.46514,-15.332349 4.25566,12.819529 7.54564,-17.595276 -8.97421,10.095276 19.01077,-2.26293 -13.22986,-2.72425 11.46513,15.33235 -4.25566,-12.81953 -7.54563,17.59528 8.9742,-10.09528 -19.01077,2.26293 z"
       inkscape:transform-center-x="1.2389819"
       inkscape:transform-center-y="-2.4722266" />
    <path
       transform="translate(493.74201,417.91969)"
       sodipodi:type="star"
       style="fill:#ffffff;fill-opacity:1;stroke:none"
       id="path3813-70"
       sodipodi:sides="6"
       sodipodi:cx="162.85715"
       sodipodi:cy="107.14286"
       sodipodi:r1="7.6348429"
       sodipodi:r2="12.731"
       sodipodi:arg1="1.3825748"
       sodipodi:arg2="-2.4789293"
       inkscape:flatsided="false"
       inkscape:rounded="0"
       inkscape:randomized="0"
       d="m 164.28572,114.64286 -11.46514,-15.332349 4.25566,12.819529 7.54564,-17.595276 -8.97421,10.095276 19.01077,-2.26293 -13.22986,-2.72425 11.46513,15.33235 -4.25566,-12.81953 -7.54563,17.59528 8.9742,-10.09528 -19.01077,2.26293 z"
       inkscape:transform-center-x="1.2389819"
       inkscape:transform-center-y="-2.4722266" />
    <path
       transform="translate(421.01102,371.45267)"
       sodipodi:type="star"
       style="fill:#ffffff;fill-opacity:1;stroke:none"
       id="path3813-38"
       sodipodi:sides="6"
       sodipodi:cx="162.85715"
       sodipodi:cy="107.14286"
       sodipodi:r1="7.6348429"
       sodipodi:r2="12.731"
       sodipodi:arg1="1.3825748"
       sodipodi:arg2="-2.4789293"
       inkscape:flatsided="false"
       inkscape:rounded="0"
       inkscape:randomized="0"
       d="m 164.28572,114.64286 -11.46514,-15.332349 4.25566,12.819529 7.54564,-17.595276 -8.97421,10.095276 19.01077,-2.26293 -13.22986,-2.72425 11.46513,15.33235 -4.25566,-12.81953 -7.54563,17.59528 8.9742,-10.09528 -19.01077,2.26293 z"
       inkscape:transform-center-x="1.2389819"
       inkscape:transform-center-y="-2.4722266" />
    <path
       transform="translate(410.9095,324.98566)"
       sodipodi:type="star"
       style="fill:#ffffff;fill-opacity:1;stroke:none"
       id="path3813-558"
       sodipodi:sides="6"
       sodipodi:cx="162.85715"
       sodipodi:cy="107.14286"
       sodipodi:r1="7.6348429"
       sodipodi:r2="12.731"
       sodipodi:arg1="1.3825748"
       sodipodi:arg2="-2.4789293"
       inkscape:flatsided="false"
       inkscape:rounded="0"
       inkscape:randomized="0"
       d="m 164.28572,114.64286 -11.46514,-15.332349 4.25566,12.819529 7.54564,-17.595276 -8.97421,10.095276 19.01077,-2.26293 -13.22986,-2.72425 11.46513,15.33235 -4.25566,-12.81953 -7.54563,17.59528 8.9742,-10.09528 -19.01077,2.26293 z"
       inkscape:transform-center-x="1.2389819"
       inkscape:transform-center-y="-2.4722266" />
    <path
       transform="translate(263.42723,351.24962)"
       sodipodi:type="star"
       style="fill:#ffffff;fill-opacity:1;stroke:none"
       id="path3813-261"
       sodipodi:sides="6"
       sodipodi:cx="162.85715"
       sodipodi:cy="107.14286"
       sodipodi:r1="7.6348429"
       sodipodi:r2="12.731"
       sodipodi:arg1="1.3825748"
       sodipodi:arg2="-2.4789293"
       inkscape:flatsided="false"
       inkscape:rounded="0"
       inkscape:randomized="0"
       d="m 164.28572,114.64286 -11.46514,-15.332349 4.25566,12.819529 7.54564,-17.595276 -8.97421,10.095276 19.01077,-2.26293 -13.22986,-2.72425 11.46513,15.33235 -4.25566,-12.81953 -7.54563,17.59528 8.9742,-10.09528 -19.01077,2.26293 z"
       inkscape:transform-center-x="1.2389819"
       inkscape:transform-center-y="-2.4722266" />
    <path
       transform="translate(265.44753,454.28518)"
       sodipodi:type="star"
       style="fill:#ffffff;fill-opacity:1;stroke:none"
       id="path3813-253"
       sodipodi:sides="6"
       sodipodi:cx="162.85715"
       sodipodi:cy="107.14286"
       sodipodi:r1="7.6348429"
       sodipodi:r2="12.731"
       sodipodi:arg1="1.3825748"
       sodipodi:arg2="-2.4789293"
       inkscape:flatsided="false"
       inkscape:rounded="0"
       inkscape:randomized="0"
       d="m 164.28572,114.64286 -11.46514,-15.332349 4.25566,12.819529 7.54564,-17.595276 -8.97421,10.095276 19.01077,-2.26293 -13.22986,-2.72425 11.46513,15.33235 -4.25566,-12.81953 -7.54563,17.59528 8.9742,-10.09528 -19.01077,2.26293 z"
       inkscape:transform-center-x="1.2389819"
       inkscape:transform-center-y="-2.4722266" />
    <path
       transform="translate(63.417023,327.00596)"
       sodipodi:type="star"
       style="fill:#ffffff;fill-opacity:1;stroke:none"
       id="path3813-05"
       sodipodi:sides="6"
       sodipodi:cx="162.85715"
       sodipodi:cy="107.14286"
       sodipodi:r1="7.6348429"
       sodipodi:r2="12.731"
       sodipodi:arg1="1.3825748"
       sodipodi:arg2="-2.4789293"
       inkscape:flatsided="false"
       inkscape:rounded="0"
       inkscape:randomized="0"
       d="m 164.28572,114.64286 -11.46514,-15.332349 4.25566,12.819529 7.54564,-17.595276 -8.97421,10.095276 19.01077,-2.26293 -13.22986,-2.72425 11.46513,15.33235 -4.25566,-12.81953 -7.54563,17.59528 8.9742,-10.09528 -19.01077,2.26293 z"
       inkscape:transform-center-x="1.2389819"
       inkscape:transform-center-y="-2.4722266" />
    <path
       transform="translate(41.193667,244.17345)"
       sodipodi:type="star"
       style="fill:#ffffff;fill-opacity:1;stroke:none"
       id="path3813-954"
       sodipodi:sides="6"
       sodipodi:cx="162.85715"
       sodipodi:cy="107.14286"
       sodipodi:r1="7.6348429"
       sodipodi:r2="12.731"
       sodipodi:arg1="1.3825748"
       sodipodi:arg2="-2.4789293"
       inkscape:flatsided="false"
       inkscape:rounded="0"
       inkscape:randomized="0"
       d="m 164.28572,114.64286 -11.46514,-15.332349 4.25566,12.819529 7.54564,-17.595276 -8.97421,10.095276 19.01077,-2.26293 -13.22986,-2.72425 11.46513,15.33235 -4.25566,-12.81953 -7.54563,17.59528 8.9742,-10.09528 -19.01077,2.26293 z"
       inkscape:transform-center-x="1.2389819"
       inkscape:transform-center-y="-2.4722266" />
    <path
       transform="translate(243.22418,316.90444)"
       sodipodi:type="star"
       style="fill:#ffffff;fill-opacity:1;stroke:none"
       id="path3813-20"
       sodipodi:sides="6"
       sodipodi:cx="162.85715"
       sodipodi:cy="107.14286"
       sodipodi:r1="7.6348429"
       sodipodi:r2="12.731"
       sodipodi:arg1="1.3825748"
       sodipodi:arg2="-2.4789293"
       inkscape:flatsided="false"
       inkscape:rounded="0"
       inkscape:randomized="0"
       d="m 164.28572,114.64286 -11.46514,-15.332349 4.25566,12.819529 7.54564,-17.595276 -8.97421,10.095276 19.01077,-2.26293 -13.22986,-2.72425 11.46513,15.33235 -4.25566,-12.81953 -7.54563,17.59528 8.9742,-10.09528 -19.01077,2.26293 z"
       inkscape:transform-center-x="1.2389819"
       inkscape:transform-center-y="-2.4722266" />
    <path
       transform="translate(245.24448,371.45267)"
       sodipodi:type="star"
       style="fill:#ffffff;fill-opacity:1;stroke:none"
       id="path3813-680"
       sodipodi:sides="6"
       sodipodi:cx="162.85715"
       sodipodi:cy="107.14286"
       sodipodi:r1="7.6348429"
       sodipodi:r2="12.731"
       sodipodi:arg1="1.3825748"
       sodipodi:arg2="-2.4789293"
       inkscape:flatsided="false"
       inkscape:rounded="0"
       inkscape:randomized="0"
       d="m 164.28572,114.64286 -11.46514,-15.332349 4.25566,12.819529 7.54564,-17.595276 -8.97421,10.095276 19.01077,-2.26293 -13.22986,-2.72425 11.46513,15.33235 -4.25566,-12.81953 -7.54563,17.59528 8.9742,-10.09528 -19.01077,2.26293 z"
       inkscape:transform-center-x="1.2389819"
       inkscape:transform-center-y="-2.4722266" />
    <path
       transform="translate(182.61502,377.51359)"
       sodipodi:type="star"
       style="fill:#ffffff;fill-opacity:1;stroke:none"
       id="path3813-90"
       sodipodi:sides="6"
       sodipodi:cx="162.85715"
       sodipodi:cy="107.14286"
       sodipodi:r1="7.6348429"
       sodipodi:r2="12.731"
       sodipodi:arg1="1.3825748"
       sodipodi:arg2="-2.4789293"
       inkscape:flatsided="false"
       inkscape:rounded="0"
       inkscape:randomized="0"
       d="m 164.28572,114.64286 -11.46514,-15.332349 4.25566,12.819529 7.54564,-17.595276 -8.97421,10.095276 19.01077,-2.26293 -13.22986,-2.72425 11.46513,15.33235 -4.25566,-12.81953 -7.54563,17.59528 8.9742,-10.09528 -19.01077,2.26293 z"
       inkscape:transform-center-x="1.2389819"
       inkscape:transform-center-y="-2.4722266" />
    <path
       transform="translate(673.54916,316.90444)"
       sodipodi:type="star"
       style="fill:#ffffff;fill-opacity:1;stroke:none"
       id="path3813-99"
       sodipodi:sides="6"
       sodipodi:cx="162.85715"
       sodipodi:cy="107.14286"
       sodipodi:r1="7.6348429"
       sodipodi:r2="12.731"
       sodipodi:arg1="1.3825748"
       sodipodi:arg2="-2.4789293"
       inkscape:flatsided="false"
       inkscape:rounded="0"
       inkscape:randomized="0"
       d="m 164.28572,114.64286 -11.46514,-15.332349 4.25566,12.819529 7.54564,-17.595276 -8.97421,10.095276 19.01077,-2.26293 -13.22986,-2.72425 11.46513,15.33235 -4.25566,-12.81953 -7.54563,17.59528 8.9742,-10.09528 -19.01077,2.26293 z"
       inkscape:transform-center-x="1.2389819"
       inkscape:transform-center-y="-2.4722266" />
    <path
       transform="translate(877.59997,284.57956)"
       sodipodi:type="star"
       style="fill:#ffffff;fill-opacity:1;stroke:none"
       id="path3813-79"
       sodipodi:sides="6"
       sodipodi:cx="162.85715"
       sodipodi:cy="107.14286"
       sodipodi:r1="7.6348429"
       sodipodi:r2="12.731"
       sodipodi:arg1="1.3825748"
       sodipodi:arg2="-2.4789293"
       inkscape:flatsided="false"
       inkscape:rounded="0"
       inkscape:randomized="0"
       d="m 164.28572,114.64286 -11.46514,-15.332349 4.25566,12.819529 7.54564,-17.595276 -8.97421,10.095276 19.01077,-2.26293 -13.22986,-2.72425 11.46513,15.33235 -4.25566,-12.81953 -7.54563,17.59528 8.9742,-10.09528 -19.01077,2.26293 z"
       inkscape:transform-center-x="1.2389819"
       inkscape:transform-center-y="-2.4722266" />
    <path
       transform="translate(905.88425,349.22932)"
       sodipodi:type="star"
       style="fill:#ffffff;fill-opacity:1;stroke:none"
       id="path3813-97"
       sodipodi:sides="6"
       sodipodi:cx="162.85715"
       sodipodi:cy="107.14286"
       sodipodi:r1="7.6348429"
       sodipodi:r2="12.731"
       sodipodi:arg1="1.3825748"
       sodipodi:arg2="-2.4789293"
       inkscape:flatsided="false"
       inkscape:rounded="0"
       inkscape:randomized="0"
       d="m 164.28572,114.64286 -11.46514,-15.332349 4.25566,12.819529 7.54564,-17.595276 -8.97421,10.095276 19.01077,-2.26293 -13.22986,-2.72425 11.46513,15.33235 -4.25566,-12.81953 -7.54563,17.59528 8.9742,-10.09528 -19.01077,2.26293 z"
       inkscape:transform-center-x="1.2389819"
       inkscape:transform-center-y="-2.4722266" />
    <path
       transform="translate(871.53906,403.77756)"
       sodipodi:type="star"
       style="fill:#ffffff;fill-opacity:1;stroke:none"
       id="path3813-999"
       sodipodi:sides="6"
       sodipodi:cx="162.85715"
       sodipodi:cy="107.14286"
       sodipodi:r1="7.6348429"
       sodipodi:r2="12.731"
       sodipodi:arg1="1.3825748"
       sodipodi:arg2="-2.4789293"
       inkscape:flatsided="false"
       inkscape:rounded="0"
       inkscape:randomized="0"
       d="m 164.28572,114.64286 -11.46514,-15.332349 4.25566,12.819529 7.54564,-17.595276 -8.97421,10.095276 19.01077,-2.26293 -13.22986,-2.72425 11.46513,15.33235 -4.25566,-12.81953 -7.54563,17.59528 8.9742,-10.09528 -19.01077,2.26293 z"
       inkscape:transform-center-x="1.2389819"
       inkscape:transform-center-y="-2.4722266" />
    <path
       transform="translate(903.86394,512.87403)"
       sodipodi:type="star"
       style="fill:#ffffff;fill-opacity:1;stroke:none"
       id="path3813-51"
       sodipodi:sides="6"
       sodipodi:cx="162.85715"
       sodipodi:cy="107.14286"
       sodipodi:r1="7.6348429"
       sodipodi:r2="12.731"
       sodipodi:arg1="1.3825748"
       sodipodi:arg2="-2.4789293"
       inkscape:flatsided="false"
       inkscape:rounded="0"
       inkscape:randomized="0"
       d="m 164.28572,114.64286 -11.46514,-15.332349 4.25566,12.819529 7.54564,-17.595276 -8.97421,10.095276 19.01077,-2.26293 -13.22986,-2.72425 11.46513,15.33235 -4.25566,-12.81953 -7.54563,17.59528 8.9742,-10.09528 -19.01077,2.26293 z"
       inkscape:transform-center-x="1.2389819"
       inkscape:transform-center-y="-2.4722266" />
    <path
       transform="translate(879.62028,595.70654)"
       sodipodi:type="star"
       style="fill:#ffffff;fill-opacity:1;stroke:none"
       id="path3813-30"
       sodipodi:sides="6"
       sodipodi:cx="162.85715"
       sodipodi:cy="107.14286"
       sodipodi:r1="7.6348429"
       sodipodi:r2="12.731"
       sodipodi:arg1="1.3825748"
       sodipodi:arg2="-2.4789293"
       inkscape:flatsided="false"
       inkscape:rounded="0"
       inkscape:randomized="0"
       d="m 164.28572,114.64286 -11.46514,-15.332349 4.25566,12.819529 7.54564,-17.595276 -8.97421,10.095276 19.01077,-2.26293 -13.22986,-2.72425 11.46513,15.33235 -4.25566,-12.81953 -7.54563,17.59528 8.9742,-10.09528 -19.01077,2.26293 z"
       inkscape:transform-center-x="1.2389819"
       inkscape:transform-center-y="-2.4722266" />
    <path
       transform="translate(697.79282,480.54915)"
       sodipodi:type="star"
       style="fill:#ffffff;fill-opacity:1;stroke:none"
       id="path3813-958"
       sodipodi:sides="6"
       sodipodi:cx="162.85715"
       sodipodi:cy="107.14286"
       sodipodi:r1="7.6348429"
       sodipodi:r2="12.731"
       sodipodi:arg1="1.3825748"
       sodipodi:arg2="-2.4789293"
       inkscape:flatsided="false"
       inkscape:rounded="0"
       inkscape:randomized="0"
       d="m 164.28572,114.64286 -11.46514,-15.332349 4.25566,12.819529 7.54564,-17.595276 -8.97421,10.095276 19.01077,-2.26293 -13.22986,-2.72425 11.46513,15.33235 -4.25566,-12.81953 -7.54563,17.59528 8.9742,-10.09528 -19.01077,2.26293 z"
       inkscape:transform-center-x="1.2389819"
       inkscape:transform-center-y="-2.4722266" />
    <path
       transform="translate(764.46289,383.5745)"
       sodipodi:type="star"
       style="fill:#ffffff;fill-opacity:1;stroke:none"
       id="path3813-721"
       sodipodi:sides="6"
       sodipodi:cx="162.85715"
       sodipodi:cy="107.14286"
       sodipodi:r1="7.6348429"
       sodipodi:r2="12.731"
       sodipodi:arg1="1.3825748"
       sodipodi:arg2="-2.4789293"
       inkscape:flatsided="false"
       inkscape:rounded="0"
       inkscape:randomized="0"
       d="m 164.28572,114.64286 -11.46514,-15.332349 4.25566,12.819529 7.54564,-17.595276 -8.97421,10.095276 19.01077,-2.26293 -13.22986,-2.72425 11.46513,15.33235 -4.25566,-12.81953 -7.54563,17.59528 8.9742,-10.09528 -19.01077,2.26293 z"
       inkscape:transform-center-x="1.2389819"
       inkscape:transform-center-y="-2.4722266" />
    <path
       transform="translate(772.54411,387.61511)"
       sodipodi:type="star"
       style="fill:#ffffff;fill-opacity:1;stroke:none"
       id="path3813-108"
       sodipodi:sides="6"
       sodipodi:cx="162.85715"
       sodipodi:cy="107.14286"
       sodipodi:r1="7.6348429"
       sodipodi:r2="12.731"
       sodipodi:arg1="1.3825748"
       sodipodi:arg2="-2.4789293"
       inkscape:flatsided="false"
       inkscape:rounded="0"
       inkscape:randomized="0"
       d="m 164.28572,114.64286 -11.46514,-15.332349 4.25566,12.819529 7.54564,-17.595276 -8.97421,10.095276 19.01077,-2.26293 -13.22986,-2.72425 11.46513,15.33235 -4.25566,-12.81953 -7.54563,17.59528 8.9742,-10.09528 -19.01077,2.26293 z"
       inkscape:transform-center-x="1.2389819"
       inkscape:transform-center-y="-2.4722266" />
    <path
       transform="translate(588.69635,411.85878)"
       sodipodi:type="star"
       style="fill:#ffffff;fill-opacity:1;stroke:none"
       id="path3813-701"
       sodipodi:sides="6"
       sodipodi:cx="162.85715"
       sodipodi:cy="107.14286"
       sodipodi:r1="7.6348429"
       sodipodi:r2="12.731"
       sodipodi:arg1="1.3825748"
       sodipodi:arg2="-2.4789293"
       inkscape:flatsided="false"
       inkscape:rounded="0"
       inkscape:randomized="0"
       d="m 164.28572,114.64286 -11.46514,-15.332349 4.25566,12.819529 7.54564,-17.595276 -8.97421,10.095276 19.01077,-2.26293 -13.22986,-2.72425 11.46513,15.33235 -4.25566,-12.81953 -7.54563,17.59528 8.9742,-10.09528 -19.01077,2.26293 z"
       inkscape:transform-center-x="1.2389819"
       inkscape:transform-center-y="-2.4722266" />
    <path
       transform="translate(616.98062,484.58976)"
       sodipodi:type="star"
       style="fill:#ffffff;fill-opacity:1;stroke:none"
       id="path3813-75"
       sodipodi:sides="6"
       sodipodi:cx="162.85715"
       sodipodi:cy="107.14286"
       sodipodi:r1="7.6348429"
       sodipodi:r2="12.731"
       sodipodi:arg1="1.3825748"
       sodipodi:arg2="-2.4789293"
       inkscape:flatsided="false"
       inkscape:rounded="0"
       inkscape:randomized="0"
       d="m 164.28572,114.64286 -11.46514,-15.332349 4.25566,12.819529 7.54564,-17.595276 -8.97421,10.095276 19.01077,-2.26293 -13.22986,-2.72425 11.46513,15.33235 -4.25566,-12.81953 -7.54563,17.59528 8.9742,-10.09528 -19.01077,2.26293 z"
       inkscape:transform-center-x="1.2389819"
       inkscape:transform-center-y="-2.4722266" />
    <path
       transform="translate(845.27509,702.78271)"
       sodipodi:type="star"
       style="fill:#ffffff;fill-opacity:1;stroke:none"
       id="path3813-96"
       sodipodi:sides="6"
       sodipodi:cx="162.85715"
       sodipodi:cy="107.14286"
       sodipodi:r1="7.6348429"
       sodipodi:r2="12.731"
       sodipodi:arg1="1.3825748"
       sodipodi:arg2="-2.4789293"
       inkscape:flatsided="false"
       inkscape:rounded="0"
       inkscape:randomized="0"
       d="m 164.28572,114.64286 -11.46514,-15.332349 4.25566,12.819529 7.54564,-17.595276 -8.97421,10.095276 19.01077,-2.26293 -13.22986,-2.72425 11.46513,15.33235 -4.25566,-12.81953 -7.54563,17.59528 8.9742,-10.09528 -19.01077,2.26293 z"
       inkscape:transform-center-x="1.2389819"
       inkscape:transform-center-y="-2.4722266" />
    <path
       transform="translate(859.41723,789.65583)"
       sodipodi:type="star"
       style="fill:#ffffff;fill-opacity:1;stroke:none"
       id="path3813-47"
       sodipodi:sides="6"
       sodipodi:cx="162.85715"
       sodipodi:cy="107.14286"
       sodipodi:r1="7.6348429"
       sodipodi:r2="12.731"
       sodipodi:arg1="1.3825748"
       sodipodi:arg2="-2.4789293"
       inkscape:flatsided="false"
       inkscape:rounded="0"
       inkscape:randomized="0"
       d="m 164.28572,114.64286 -11.46514,-15.332349 4.25566,12.819529 7.54564,-17.595276 -8.97421,10.095276 19.01077,-2.26293 -13.22986,-2.72425 11.46513,15.33235 -4.25566,-12.81953 -7.54563,17.59528 8.9742,-10.09528 -19.01077,2.26293 z"
       inkscape:transform-center-x="1.2389819"
       inkscape:transform-center-y="-2.4722266" />
  </g>
</svg>
