<?xml version="1.0" encoding="UTF-8" standalone="no"?>
<!-- Created with Inkscape (http://www.inkscape.org/) -->

<svg
   xmlns:dc="http://purl.org/dc/elements/1.1/"
   xmlns:cc="http://creativecommons.org/ns#"
   xmlns:rdf="http://www.w3.org/1999/02/22-rdf-syntax-ns#"
   xmlns:svg="http://www.w3.org/2000/svg"
   xmlns="http://www.w3.org/2000/svg"
   xmlns:sodipodi="http://sodipodi.sourceforge.net/DTD/sodipodi-0.dtd"
   xmlns:inkscape="http://www.inkscape.org/namespaces/inkscape"
   width="1000"
   height="700"
   id="svg3948"
   version="1.1"
   inkscape:version="0.48.3.1 r9886"
   sodipodi:docname="fail.svg"
   inkscape:export-filename="/home/henry/Original/workspace/aaa/src/main/resources/fail.png"
   inkscape:export-xdpi="90"
   inkscape:export-ydpi="90">
  <defs
     id="defs3950" />
  <sodipodi:namedview
     id="base"
     pagecolor="#ffffff"
     bordercolor="#666666"
     borderopacity="1.0"
     inkscape:pageopacity="0.0"
     inkscape:pageshadow="2"
     inkscape:zoom="0.7"
     inkscape:cx="614.18527"
     inkscape:cy="395.76232"
     inkscape:document-units="px"
     inkscape:current-layer="layer1"
     showgrid="false"
     inkscape:window-width="1102"
     inkscape:window-height="706"
     inkscape:window-x="1280"
     inkscape:window-y="248"
     inkscape:window-maximized="0" />
  <metadata
     id="metadata3953">
    <rdf:RDF>
      <cc:Work
         rdf:about="">
        <dc:format>image/svg+xml</dc:format>
        <dc:type
           rdf:resource="http://purl.org/dc/dcmitype/StillImage" />
        <dc:title></dc:title>
      </cc:Work>
    </rdf:RDF>
  </metadata>
  <g
     inkscape:label="Layer 1"
     inkscape:groupmode="layer"
     id="layer1"
     transform="translate(0,-352.36218)">
    <path
       sodipodi:type="arc"
       style="fill:#ff0000;fill-opacity:1;stroke:none"
       id="path3974"
       sodipodi:cx="413.57144"
       sodipodi:cy="420"
       sodipodi:rx="182.14285"
       sodipodi:ry="164.28572"
       d="m 595.71429,420 a 182.14285,164.28572 0 1 1 -364.2857,0 182.14285,164.28572 0 1 1 364.2857,0 z"
       transform="matrix(0.75686027,0,0,0.75865966,-102.30149,416.23148)" />
    <path
       sodipodi:type="arc"
       style="fill:#de8787;fill-opacity:1;stroke:none"
       id="path3956"
       sodipodi:cx="428.57144"
       sodipodi:cy="241.42857"
       sodipodi:rx="138.57143"
       sodipodi:ry="74.285713"
       d="m 567.14287,241.42857 a 138.57143,74.285713 0 1 1 -277.14285,0 138.57143,74.285713 0 1 1 277.14285,0 z"
       transform="matrix(0.75686027,0,0,0.75865966,-102.30149,416.23148)" />
    <path
       sodipodi:type="arc"
       style="fill:#ffffff;fill-opacity:1;stroke:none"
       id="path3958"
       sodipodi:cx="376.42856"
       sodipodi:cy="212.14285"
       sodipodi:rx="17.857143"
       sodipodi:ry="19.285715"
       d="m 394.2857,212.14285 a 17.857143,19.285715 0 1 1 -35.71429,0 17.857143,19.285715 0 1 1 35.71429,0 z"
       transform="matrix(0.75686027,0,0,0.75865966,-102.30149,416.23148)" />
    <path
       sodipodi:type="arc"
       style="fill:#ffffff;fill-opacity:1;stroke:none"
       id="path3960"
       sodipodi:cx="449.28571"
       sodipodi:cy="212.85715"
       sodipodi:rx="19.285715"
       sodipodi:ry="18.571428"
       d="m 468.57142,212.85715 a 19.285715,18.571428 0 1 1 -38.57143,0 19.285715,18.571428 0 1 1 38.57143,0 z"
       transform="matrix(0.75686027,0,0,0.75865966,-76.587204,416.23148)" />
    <path
       style="fill:#d40000;stroke:#000000;stroke-width:0.75775945px;stroke-linecap:butt;stroke-linejoin:miter;stroke-opacity:1"
       d="M 121.5129,552.79022 241.52931,410.81248 330.19009,562.54442 z"
       id="path3966"
       inkscape:connector-curvature="0" />
    <path
       sodipodi:type="arc"
       style="fill:#ff2a2a;fill-opacity:1;stroke:none"
       id="path3968"
       sodipodi:cx="343.57144"
       sodipodi:cy="263.57144"
       sodipodi:rx="30.714285"
       sodipodi:ry="25"
       d="m 374.28573,263.57144 a 30.714285,25 0 1 1 -61.42857,0 30.714285,25 0 1 1 61.42857,0 z"
       transform="matrix(0.75686027,0,0,0.75865966,-102.30149,416.23148)" />
    <path
       sodipodi:type="arc"
       style="fill:#ff2a2a;fill-opacity:1;stroke:none"
       id="path3970"
       sodipodi:cx="503.57144"
       sodipodi:cy="265"
       sodipodi:rx="32.142857"
       sodipodi:ry="25"
       d="m 535.7143,265 a 32.142857,25 0 1 1 -64.28571,0 32.142857,25 0 1 1 64.28571,0 z"
       transform="matrix(0.75686027,0,0,0.75865966,-102.30149,416.23148)" />
    <path
       sodipodi:type="arc"
       style="fill:#000000;fill-opacity:1;stroke:none"
       id="path3976"
       sodipodi:cx="400.71429"
       sodipodi:cy="381.42856"
       sodipodi:rx="7.8571429"
       sodipodi:ry="10"
       d="m 408.57144,381.42856 a 7.8571429,10 0 1 1 -15.71429,0 7.8571429,10 0 1 1 15.71429,0 z"
       transform="matrix(0.75686027,0,0,0.75865966,-102.30149,416.23148)" />
    <path
       sodipodi:type="arc"
       style="fill:#000000;fill-opacity:1;stroke:none"
       id="path3978"
       sodipodi:cx="409.28571"
       sodipodi:cy="454.28571"
       sodipodi:rx="9.2857141"
       sodipodi:ry="12.857142"
       d="m 418.57142,454.28571 a 9.2857141,12.857142 0 1 1 -18.57143,0 9.2857141,12.857142 0 1 1 18.57143,0 z"
       transform="matrix(0.75686027,0,0,0.75865966,-102.30149,416.23148)" />
    <path
       sodipodi:type="arc"
       style="fill:#000000;fill-opacity:1;stroke:none"
       id="path3980"
       sodipodi:cx="419.28571"
       sodipodi:cy="518.57141"
       sodipodi:rx="9.2857141"
       sodipodi:ry="12.857142"
       d="m 428.57142,518.57141 a 9.2857141,12.857142 0 1 1 -18.57143,0 9.2857141,12.857142 0 1 1 18.57143,0 z"
       transform="matrix(0.75686027,0,0,0.75865966,-102.30149,416.23148)" />
    <text
       xml:space="preserve"
       style="font-size:40px;font-style:normal;font-weight:normal;line-height:125%;letter-spacing:0px;word-spacing:0px;fill:#000000;fill-opacity:1;stroke:none;font-family:Sans"
       x="418.57141"
       y="482.36218"
       id="text3982"
       sodipodi:linespacing="125%"><tspan
         sodipodi:role="line"
         id="tspan3984"
         x="418.57141"
         y="482.36218"
         style="font-size:72px;font-style:normal;font-variant:normal;font-weight:bold;font-stretch:normal;font-family:Arial;-inkscape-font-specification:Arial Bold">You Won!</tspan></text>
    <text
       xml:space="preserve"
       style="font-size:40px;font-style:normal;font-weight:normal;line-height:125%;letter-spacing:0px;word-spacing:0px;fill:#000000;fill-opacity:1;stroke:none;font-family:Sans"
       x="412.85715"
       y="245.71429"
       id="text3986"
       sodipodi:linespacing="125%"
       transform="translate(0,352.36218)"><tspan
         sodipodi:role="line"
         id="tspan3988"
         x="412.85715"
         y="245.71429">Christmas ruined!</tspan></text>
    <text
       xml:space="preserve"
       style="font-size:40px;font-style:normal;font-weight:normal;line-height:125%;letter-spacing:0px;word-spacing:0px;fill:#000000;fill-opacity:1;stroke:none;font-family:Sans"
       x="415.71429"
       y="398.57144"
       id="text3990"
       sodipodi:linespacing="125%"
       transform="translate(0,352.36218)"><tspan
         sodipodi:role="line"
         id="tspan3992"
         x="415.71429"
         y="398.57144">Another terrible game</tspan><tspan
         sodipodi:role="line"
         x="415.71429"
         y="448.57144"
         id="tspan3994">by hnjslater </tspan><tspan
         sodipodi:role="line"
         x="415.71429"
         y="498.57144"
         id="tspan3996">for Ludum Dare 25</tspan></text>
    <path
       sodipodi:type="arc"
       style="fill:#ffffff;fill-opacity:1;stroke:none"
       id="path4525"
       sodipodi:cx="219.28572"
       sodipodi:cy="323.57144"
       sodipodi:rx="66.428574"
       sodipodi:ry="53.57143"
       d="m 285.71429,323.57144 a 66.428574,53.57143 0 1 1 -132.85714,0 66.428574,53.57143 0 1 1 132.85714,0 z"
       transform="translate(0,339.50504)" />
    <path
       style="fill:none;stroke:#000000;stroke-width:6.55800009;stroke-linecap:butt;stroke-linejoin:miter;stroke-miterlimit:4;stroke-opacity:1;stroke-dasharray:none"
       d="m 169.0423,677.57077 c 11.78376,-76.14207 89.95382,-65.75641 96.35793,-3.54669"
       id="path3972"
       inkscape:connector-curvature="0"
       sodipodi:nodetypes="cc" />
  </g>
</svg>
